<?xml version="1.0" standalone="no"?>
<!DOCTYPE svg PUBLIC "-//W3C//DTD SVG 1.1//EN" "http://www.w3.org/Graphics/SVG/1.1/DTD/svg11.dtd" >
<svg xmlns="http://www.w3.org/2000/svg">
<metadata></metadata>
<defs>
<font id="dosisextralight" horiz-adv-x="931" >
<font-face units-per-em="2048" ascent="1638" descent="-410" />
<missing-glyph horiz-adv-x="409" />
<glyph unicode="&#xfb01;" horiz-adv-x="976" d="M141 35v1173q0 66 25 130t72 117t123 85.5t169 32.5q108 0 202.5 -37t94.5 -82q0 -16 -11 -26.5t-21 -10.5q-9 0 -30 13t-46.5 29t-74.5 29t-107 13q-74 0 -132.5 -21t-93.5 -52.5t-58 -72.5t-31.5 -77t-8.5 -70v-241h285q15 0 26 -10.5t11 -24.5q0 -15 -11 -26t-26 -11 h-285v-860q0 -15 -12 -25t-27 -10q-14 0 -23.5 10t-9.5 25zM768 37v895q0 15 10.5 25t24.5 10q15 0 26 -10t11 -25v-895q0 -14 -11 -25.5t-26 -11.5q-13 0 -24 11.5t-11 25.5z" />
<glyph unicode="&#xfb02;" horiz-adv-x="997" d="M141 35v1173q0 108 58 193t147.5 128.5t190.5 43.5q87 0 166.5 -36t136.5 -107v-1393q0 -14 -11 -25.5t-26 -11.5q-13 0 -24 11.5t-11 25.5v1382q-93 97 -231 97q-83 0 -156.5 -37t-120.5 -108.5t-47 -162.5v-241h285q15 0 26 -10.5t11 -24.5q0 -15 -11 -26t-26 -11h-285 v-860q0 -15 -12 -25t-27 -10q-14 0 -23.5 10t-9.5 25z" />
<glyph horiz-adv-x="2048" />
<glyph horiz-adv-x="2048" />
<glyph horiz-adv-x="682" />
<glyph unicode="&#xd;" horiz-adv-x="0" />
<glyph unicode=" "  horiz-adv-x="409" />
<glyph unicode="&#x09;" horiz-adv-x="409" />
<glyph unicode="&#xa0;" horiz-adv-x="409" />
<glyph unicode="!" horiz-adv-x="395" d="M125 61q0 31 21 52.5t53 21.5q29 0 50 -21.5t21 -52.5q0 -29 -21 -51t-50 -22q-32 0 -53 21.5t-21 51.5zM143 1468q0 30 15 47t39 17t39.5 -17t15.5 -47q0 -184 -11.5 -567t-11.5 -567q0 -14 -11 -23.5t-21 -9.5q-11 0 -21 9.5t-10 23.5q0 184 -11.5 567t-11.5 567z" />
<glyph unicode="&#x22;" horiz-adv-x="522" d="M88 1538q0 14 16.5 24.5t32.5 10.5q17 0 34 -10.5t17 -24.5l-20 -311q0 -15 -8.5 -26t-22.5 -11q-28 0 -28 37zM334 1538q0 14 16.5 24.5t32.5 10.5q17 0 34 -10.5t17 -24.5l-20 -311q0 -15 -8.5 -26t-22.5 -11t-21.5 11t-7.5 26z" />
<glyph unicode="#" horiz-adv-x="1120" d="M66 580q0 12 7 21t17 9h238l53 363h-215q-37 0 -37 33q0 12 7 20t18 8h237l62 406q3 20 24 20q19 0 29 -12t10 -29l-59 -385h276l62 406q3 20 24 20q19 0 29 -12t10 -29l-59 -385h219q14 0 26.5 -8t12.5 -22q0 -11 -8.5 -21t-18.5 -10h-239l-56 -363h219q14 0 26.5 -8 t12.5 -24q0 -11 -8 -20t-18 -9h-242l-66 -445q-6 -30 -34 -30q-14 0 -23.5 10.5t-9.5 28.5l65 436h-274l-66 -443q-5 -32 -30 -32q-14 0 -24.5 10.5t-10.5 28.5l63 436h-213q-36 0 -36 31zM393 610h275l55 363h-274z" />
<glyph unicode="$" horiz-adv-x="991" d="M90 215q0 15 12 29t23 14q9 0 23.5 -18t38 -44t58.5 -52t98 -44t144 -18v686q-143 47 -199 79q-133 76 -156 224q-5 34 -5 72q0 74 22 132t57 93.5t84 59.5t96.5 34t100.5 13v63q0 14 11 24.5t26 10.5q14 0 25.5 -11t11.5 -24v-61q113 -4 203 -38.5t90 -68.5 q0 -13 -12 -29t-25 -16q-8 0 -39 17t-89 36t-128 23v-578q58 -21 99 -40t88 -53.5t75.5 -76t48 -107t19.5 -147.5q0 -177 -88 -273t-242 -114v-84q0 -13 -11.5 -23.5t-25.5 -10.5q-15 0 -26 10t-11 24v80q-92 0 -171.5 24.5t-126.5 59t-73 68t-26 55.5zM201 1149 q0 -47 10 -86t31 -68t44 -50t60 -40t66.5 -30.5t74.5 -26.5v553q-58 -3 -106 -17t-90 -41.5t-66 -77t-24 -116.5zM561 88q126 19 191 96t65 209q0 77 -19.5 136t-58 99t-79.5 65t-99 48v-653z" />
<glyph unicode="%" horiz-adv-x="1517" d="M94 961v317q0 112 64.5 165.5t171.5 53.5t171 -53t64 -166v-317q0 -114 -64 -167t-171 -53t-171.5 53t-64.5 167zM164 961q0 -78 43 -117t123 -39t124 39t44 117v317q0 78 -44 117t-124 39t-123 -39t-43 -117v-317zM334 -10q0 12 4 18l801 1548q9 17 26 17q13 0 25 -11.5 t12 -27.5q0 -11 -6 -23l-795 -1529q-11 -23 -34 -23q-13 0 -23 9t-10 22zM952 213v317q0 113 64.5 166.5t171.5 53.5t171 -53.5t64 -166.5v-317q0 -114 -64 -166.5t-171 -52.5q-108 0 -172 52.5t-64 166.5zM1022 213q0 -78 43 -117t123 -39t124 39t44 117v317q0 78 -44 117 t-124 39t-123 -39t-43 -117v-317z" />
<glyph unicode="&#x26;" horiz-adv-x="1218" d="M84 408q0 79 24.5 146.5t67.5 116.5t91.5 83.5t105.5 58.5q-40 48 -64.5 80.5t-54 83t-43.5 104.5t-14 113q0 157 98.5 247.5t243.5 90.5q60 0 112.5 -14.5t86.5 -36t58.5 -47t35 -46.5t10.5 -34q0 -33 -35 -33q-10 0 -22.5 15t-29.5 36.5t-41 42.5t-67.5 36t-99.5 15 q-123 0 -193.5 -76t-70.5 -202q0 -103 45.5 -184.5t136.5 -182.5l457 -506q74 171 79 420q0 24 8 33.5t27 9.5q31 0 31 -47q0 -275 -96 -471l198 -217q11 -15 11 -23q0 -13 -10.5 -22.5t-22.5 -9.5q-13 0 -25 12l-184 199q-140 -219 -406 -219q-208 0 -328 124t-120 304z M160 416q0 -97 43.5 -179t133 -134t208.5 -52q230 0 344 199l-473 510q-41 -22 -67 -37.5t-66 -48.5t-63.5 -65.5t-41.5 -83.5t-18 -109z" />
<glyph unicode="'" horiz-adv-x="276" d="M88 1538q0 14 16.5 24.5t32.5 10.5q17 0 34 -10.5t17 -24.5l-20 -311q0 -15 -8.5 -26t-22.5 -11q-28 0 -28 37z" />
<glyph unicode="(" horiz-adv-x="569" d="M137 293v917q0 94 44.5 177t127.5 134.5t185 51.5q13 0 23.5 -10.5t10.5 -24.5q0 -15 -10 -26t-24 -11q-86 0 -152.5 -44t-98.5 -109.5t-32 -137.5v-917q0 -62 18 -109.5t45.5 -76t66 -46t75.5 -24t78 -6.5q34 0 34 -35q0 -16 -10.5 -26.5t-23.5 -10.5q-163 0 -260 89.5 t-97 244.5z" />
<glyph unicode=")" horiz-adv-x="569" d="M41 -4q0 13 8.5 24t26.5 11q52 0 97.5 11.5t89.5 38.5t69.5 81t25.5 131v917q0 73 -32 138t-98 109t-152 44q-14 0 -24.5 11t-10.5 26q0 14 10.5 24.5t24.5 10.5q102 0 185 -51.5t127 -134.5t44 -177v-917q0 -155 -96.5 -244.5t-259.5 -89.5q-13 0 -24 10.5t-11 26.5z " />
<glyph unicode="*" horiz-adv-x="851" d="M80 1233q0 16 10.5 28.5t26.5 12.5q6 0 10 -2l272 -96l-10 286q0 16 11 25.5t26 9.5t26 -9.5t11 -25.5l-10 -288l272 98q4 2 12 2q13 0 24 -13.5t11 -27.5q0 -27 -24 -33l-273 -80l174 -229q6 -9 6 -19q0 -17 -12.5 -27.5t-28.5 -10.5q-15 0 -26 14l-162 235l-164 -237 q-9 -12 -22 -12q-14 0 -28.5 10t-14.5 26q0 12 8 23l172 225l-275 82q-22 6 -22 33z" />
<glyph unicode="+" horiz-adv-x="874" d="M74 492q0 15 10 25.5t25 10.5h292v291q0 14 11 25.5t26 11.5t25 -11.5t10 -25.5v-291h291q14 0 25.5 -10.5t11.5 -25.5t-11.5 -25t-25.5 -10h-291v-293q0 -15 -10 -25t-25 -10t-26 10t-11 25v293h-292q-15 0 -25 10t-10 25z" />
<glyph unicode="," horiz-adv-x="331" d="M92 61q0 31 20.5 52.5t51.5 21.5q29 0 51.5 -20t22.5 -56q0 -28 -64 -194q-10 -23 -33 -23q-13 0 -22.5 7.5t-9.5 19.5q0 10 2 16l36 105q-24 6 -39.5 26t-15.5 45z" />
<glyph unicode="-" horiz-adv-x="808" d="M102 492q0 15 10 25.5t25 10.5h533q14 0 25.5 -10.5t11.5 -25.5t-11.5 -25t-25.5 -10h-533q-15 0 -25 10t-10 25z" />
<glyph unicode="." horiz-adv-x="329" d="M92 61q0 31 21 52.5t53 21.5q29 0 50.5 -21.5t21.5 -52.5q0 -29 -21.5 -51t-50.5 -22q-32 0 -53 21.5t-21 51.5z" />
<glyph unicode="/" horiz-adv-x="958" d="M45 -10q0 12 4 18l801 1548q8 17 27 17q13 0 24.5 -11.5t11.5 -27.5q0 -11 -6 -23l-794 -1529q-11 -23 -35 -23q-13 0 -23 9t-10 22z" />
<glyph unicode="0" horiz-adv-x="1067" d="M133 410v665q0 112 30 195t85.5 131.5t126 72t157.5 23.5t158 -23.5t127 -72t86.5 -131.5t30.5 -195v-665q0 -112 -30.5 -195t-86.5 -131.5t-127 -72t-158 -23.5t-157.5 23.5t-126 72t-85.5 131.5t-30 195zM207 410q0 -175 84 -262t241 -87t242.5 87t85.5 262v665 q0 175 -85.5 261.5t-242.5 86.5t-241 -86.5t-84 -261.5v-665zM469 741q0 26 19 45t47 19q26 0 44.5 -19t18.5 -45t-18.5 -45.5t-44.5 -19.5q-27 0 -46.5 19t-19.5 46z" />
<glyph unicode="1" horiz-adv-x="428" d="M39 1153q0 7 20 47l136 262q19 35 47 35q32 0 32 -35v-1425q0 -18 -10.5 -27.5t-25.5 -9.5t-26 9.5t-11 27.5v1272l-88 -164q-13 -27 -37 -27q-15 0 -26 10.5t-11 24.5z" />
<glyph unicode="2" horiz-adv-x="944" d="M78 37v199q0 70 39 136.5t101 121t137.5 109t151 110.5t137.5 114.5t101 132t39 152.5q0 58 -20 112t-57.5 99.5t-99 72.5t-138.5 27q-126 0 -203.5 -70t-77.5 -200q0 -14 -9.5 -24.5t-28.5 -10.5q-20 0 -27.5 13t-7.5 45q0 135 101 228t257 93q114 0 203.5 -53.5 t135.5 -140.5t46 -189q0 -89 -39 -170t-101 -143.5t-137.5 -120.5t-151 -110.5t-137.5 -103.5t-101 -110t-39 -120v-162h692q14 0 24.5 -11t10.5 -26q0 -14 -11 -25.5t-24 -11.5h-729q-13 0 -25 10.5t-12 26.5z" />
<glyph unicode="3" horiz-adv-x="968" d="M68 309q0 58 32 58q20 0 29.5 -13t9.5 -30q0 -29 7.5 -60t30 -68.5t56.5 -66.5t94 -48.5t136 -19.5q160 0 246 87t86 262v39q0 151 -85.5 229t-238.5 78q-19 0 -29 11t-10 26t9.5 25.5t27.5 10.5q149 0 219 67.5t70 225.5q0 151 -66.5 226t-214.5 75q-73 0 -128.5 -18.5 t-87 -45.5t-51 -63.5t-26 -67t-6.5 -61.5q0 -49 -37 -49t-37 62q0 33 8.5 70t34 82.5t65.5 81t110.5 59.5t160.5 24q348 0 348 -356q0 -140 -48 -226.5t-124 -123.5q209 -88 209 -342v-39q0 -112 -31 -195t-86 -131.5t-125 -72t-155 -23.5q-97 0 -176 29.5t-127.5 77 t-74 103t-25.5 111.5z" />
<glyph unicode="4" horiz-adv-x="854" d="M23 401q0 16 6 25l526 1042q15 29 41 29q14 0 24.5 -10t10.5 -23q0 -10 -6 -22l-508 -1004h475v480q0 34 37 34t37 -34v-480h120q18 0 27.5 -11t9.5 -26t-9.5 -25.5t-27.5 -10.5h-120v-328q0 -18 -11 -27.5t-26 -9.5t-26 9.5t-11 27.5v328h-535q-34 0 -34 36z" />
<glyph unicode="5" horiz-adv-x="940" d="M66 326q0 41 34 41q15 0 27 -10t12 -27q0 -124 93 -196.5t233 -72.5q157 0 242.5 87t85.5 262v39q0 167 -85 251t-241 84h-277q-51 0 -51 29q0 2 1 17.5t1 17.5l37 612q3 37 37 37h547q14 0 22.5 -11t8.5 -26t-8.5 -26t-22.5 -11h-510l-39 -565h254q87 0 157.5 -22.5 t126 -69.5t85.5 -127.5t30 -189.5v-39q0 -112 -30.5 -195t-86 -131.5t-126.5 -72t-158 -23.5q-183 0 -291 96.5t-108 241.5z" />
<glyph unicode="6" horiz-adv-x="1032" d="M133 410v665q0 112 30 195t85.5 131.5t126 72t157.5 23.5q183 0 292.5 -98.5t109.5 -239.5q0 -20 -10 -30.5t-25 -10.5t-27 10t-12 27q0 119 -95 193.5t-233 74.5q-157 0 -241 -86.5t-84 -261.5v-356q107 151 328 151q399 0 399 -401v-59q0 -112 -30 -195t-85.5 -131.5 t-126 -72t-157.5 -23.5t-158 23.5t-127 72t-86.5 131.5t-30.5 195zM207 410q0 -175 85.5 -262t242.5 -87t241 87t84 262v59q0 173 -82.5 250.5t-242.5 77.5q-328 0 -328 -310v-77z" />
<glyph unicode="7" horiz-adv-x="905" d="M68 1155v305q0 14 11.5 25.5t24.5 11.5h727q12 0 24.5 -12t12.5 -25v-147q0 -11 -4 -17l-651 -1276q-10 -20 -31 -20q-18 0 -29.5 8t-11.5 23q0 10 6 22l648 1270v100h-654v-268q0 -15 -11.5 -26t-25.5 -11q-15 0 -25.5 11t-10.5 26z" />
<glyph unicode="8" horiz-adv-x="1001" d="M100 410v24q0 292 213 381q-174 79 -174 326q0 356 363 356q81 0 144 -17.5t113.5 -57t77.5 -110.5t27 -171q0 -247 -174 -326q211 -88 211 -381v-24q0 -111 -30.5 -194t-85.5 -132t-125.5 -72.5t-157.5 -23.5t-158 23.5t-127 72.5t-86.5 132t-30.5 194zM174 410 q0 -175 86 -262t244 -87q155 0 239 87.5t84 261.5v24q0 173 -84.5 257.5t-240.5 84.5q-157 0 -242.5 -84.5t-85.5 -257.5v-24zM213 1141q0 -289 289 -289t289 289q0 282 -289 282t-289 -282z" />
<glyph unicode="9" horiz-adv-x="1032" d="M98 326q0 20 10 30.5t25 10.5t27 -10t12 -27q0 -119 95 -194t233 -75q157 0 241 87t84 262v356q-53 -75 -137.5 -113.5t-189.5 -38.5q-400 0 -400 402v59q0 112 30.5 195t85.5 131.5t126 72t158 23.5t158 -23.5t126.5 -72t86 -131.5t30.5 -195v-665q0 -112 -30 -195 t-85.5 -131.5t-126 -72t-157.5 -23.5q-183 0 -292.5 98.5t-109.5 239.5zM172 1016q0 -173 83 -250.5t243 -77.5q327 0 327 309v78q0 175 -85 261.5t-242 86.5t-241.5 -86.5t-84.5 -261.5v-59z" />
<glyph unicode=":" horiz-adv-x="395" d="M125 61q0 31 21 52.5t53 21.5q29 0 50 -21.5t21 -52.5q0 -29 -21 -51t-50 -22q-32 0 -53 21.5t-21 51.5zM125 791q0 31 21 52t53 21q29 0 50 -21t21 -52q0 -30 -21 -52t-50 -22q-32 0 -53 22t-21 52z" />
<glyph unicode=";" horiz-adv-x="399" d="M125 61q0 31 20.5 52.5t51.5 21.5q29 0 51 -20t22 -56q0 -31 -63 -194q-10 -23 -33 -23q-13 0 -23 7.5t-10 19.5q0 10 2 16l37 105q-24 6 -39.5 26t-15.5 45zM127 791q0 31 21 52t53 21q29 0 50 -21t21 -52q0 -30 -21 -52t-50 -22q-32 0 -53 22t-21 52z" />
<glyph unicode="&#x3c;" horiz-adv-x="808" d="M61 567q0 23 21 39l563 373q9 6 19 6q14 0 26 -10.5t12 -24.5q0 -19 -18 -30l-528 -353l528 -350q18 -11 18 -31q0 -14 -12 -24t-26 -10q-10 0 -19 6l-563 372q-21 13 -21 37z" />
<glyph unicode="=" horiz-adv-x="882" d="M150 360q0 15 9.5 26t24.5 11h512q14 0 25.5 -11t11.5 -26q0 -14 -11.5 -24t-25.5 -10h-512q-15 0 -24.5 9.5t-9.5 24.5zM150 776q0 15 9.5 26t24.5 11h512q14 0 25.5 -11t11.5 -26t-11.5 -25t-25.5 -10h-512q-15 0 -24.5 10t-9.5 25z" />
<glyph unicode="&#x3e;" horiz-adv-x="808" d="M106 186q0 20 19 31l528 350l-528 353q-19 11 -19 30q0 14 12.5 24.5t26.5 10.5q10 0 19 -6l563 -373q21 -16 21 -39q0 -24 -21 -37l-563 -372q-9 -6 -19 -6q-14 0 -26.5 10t-12.5 24z" />
<glyph unicode="?" horiz-adv-x="784" d="M51 1413q0 40 89.5 79.5t195.5 39.5q182 0 276.5 -104.5t94.5 -268.5q0 -78 -21 -145.5t-57.5 -118t-71.5 -88t-77.5 -77.5t-61.5 -64q-37 -47 -46.5 -116t-9.5 -214q0 -17 -10 -26t-24 -9t-24.5 9t-10.5 26q0 173 16.5 248.5t55.5 122.5q19 22 61.5 61.5t73.5 72.5 t64.5 79.5t52 106.5t18.5 130q0 143 -78 223t-229 80q-59 0 -106.5 -13t-70.5 -28t-42 -28t-29 -13t-19.5 10.5t-9.5 24.5zM254 61q0 31 21.5 52.5t52.5 21.5q29 0 50 -21.5t21 -52.5q0 -30 -20.5 -51.5t-50.5 -21.5q-32 0 -53 21.5t-21 51.5z" />
<glyph unicode="@" horiz-adv-x="1447" d="M125 451q0 115 21.5 214.5t68.5 185.5t118 147.5t175.5 96.5t234.5 35q295 0 451 -166t156 -485q0 -80 -10.5 -146.5t-34.5 -124.5t-69 -91t-108 -33q-69 0 -123.5 37.5t-68.5 87.5q-59 -56 -111 -79.5t-137 -23.5q-258 0 -258 218q0 54 18 93.5t49.5 64.5t82.5 39.5 t109 20t138 5.5h101v43q0 96 -52.5 141t-166.5 45q-59 0 -99 -12t-60.5 -23.5t-31.5 -11.5q-16 0 -25.5 12.5t-9.5 24.5q0 34 78 58t166 24q134 0 203 -66.5t69 -189.5v-336q4 -42 45.5 -73t88.5 -31q42 0 72.5 29.5t46 79.5t22 103t6.5 113q0 275 -136.5 426.5 t-406.5 151.5q-119 0 -213 -33t-154.5 -89t-100.5 -134t-57 -163.5t-17 -182.5q0 -90 15.5 -170t51 -153.5t89.5 -126.5t136.5 -84.5t186.5 -31.5q64 0 119.5 10.5t86 23.5t56.5 23.5t37 10.5t21 -9.5t10 -19.5q0 -34 -107.5 -72t-228.5 -38q-109 0 -204 37.5t-172 112.5 t-122 199.5t-45 285.5zM502 322q0 -75 50 -111.5t132 -36.5q111 0 177.5 52.5t66.5 113.5v137h-99q-53 0 -88.5 -1.5t-77 -6.5t-67.5 -15.5t-49.5 -27t-34 -43t-10.5 -61.5z" />
<glyph unicode="A" horiz-adv-x="1067" d="M51 33q0 8 2 12l445 1436q8 28 37 28t38 -28l441 -1436q0 -2 1 -5t1 -5q0 -13 -13 -24t-28 -11q-24 0 -33 27l-104 335h-611l-102 -335q-9 -27 -37 -27q-14 0 -25.5 9.5t-11.5 23.5zM250 436h565l-280 918z" />
<glyph unicode="B" horiz-adv-x="1079" d="M170 35v1425q0 18 11 27.5t26 9.5h307q77 0 135.5 -8t114.5 -30t91.5 -59.5t57 -99t21.5 -145.5q0 -129 -47 -219t-127 -125q103 -43 157 -126.5t54 -233.5v-35q0 -112 -30.5 -194t-86.5 -129.5t-126.5 -70t-158.5 -22.5h-362q-17 0 -27 10.5t-10 24.5zM244 74h325 q158 0 243 84t85 258v35q0 172 -83.5 247.5t-244.5 75.5h-325v-700zM244 848h284q175 0 253.5 67t78.5 240q0 83 -24.5 137.5t-73.5 82t-105.5 38t-138.5 10.5h-274v-575z" />
<glyph unicode="C" horiz-adv-x="1048" d="M156 410v665q0 111 32 194.5t89 132t128.5 72t157.5 23.5q185 0 289 -95.5t104 -225.5q0 -34 -8 -46t-28 -12q-37 0 -37 37q-2 34 -10 66t-30 70.5t-55.5 66t-92 46.5t-134.5 19q-332 0 -332 -348v-665q0 -178 85.5 -263.5t254.5 -85.5q56 0 101.5 10t76 24.5t54.5 39 t37 44.5t23 51.5t13.5 50.5t8.5 49q1 11 3.5 18t11 13t22.5 6q19 0 27.5 -13t8.5 -47q0 -60 -26 -116.5t-74.5 -102t-126 -73t-172.5 -27.5q-85 0 -155.5 23.5t-126.5 72t-87.5 131.5t-31.5 195z" />
<glyph unicode="D" horiz-adv-x="1126" d="M170 35v1427q0 14 10 24.5t27 10.5h362q87 0 158 -23.5t127 -72t86.5 -131.5t30.5 -195v-653q0 -112 -30.5 -195t-86.5 -131.5t-127 -72t-158 -23.5h-362q-17 0 -27 10.5t-10 24.5zM244 74h325q157 0 242.5 86.5t85.5 261.5v653q0 175 -85.5 261.5t-242.5 86.5h-325 v-1349z" />
<glyph unicode="E" horiz-adv-x="1019" d="M170 37v1423q0 18 11 27.5t26 9.5h729q17 0 26 -10.5t9 -24.5q0 -16 -9.5 -27.5t-25.5 -11.5h-692v-637h327q16 0 25.5 -11t9.5 -27q0 -14 -9 -24.5t-26 -10.5h-327v-639h692q16 0 25.5 -11.5t9.5 -27.5q0 -14 -9 -24.5t-26 -10.5h-729q-15 0 -26 9.5t-11 27.5z" />
<glyph unicode="F" horiz-adv-x="1001" d="M170 35v1425q0 18 11 27.5t26 9.5h729q17 0 26 -10.5t9 -24.5q0 -16 -9.5 -27.5t-25.5 -11.5h-692v-637h327q16 0 25.5 -11t9.5 -27q0 -14 -9 -24.5t-26 -10.5h-327v-678q0 -17 -11 -26t-26 -9t-26 9t-11 26z" />
<glyph unicode="G" horiz-adv-x="1087" d="M156 410v665q0 112 30 195t85.5 131.5t126 72t157.5 23.5q184 0 292.5 -96.5t108.5 -241.5q0 -20 -10.5 -30.5t-25.5 -10.5q-14 0 -25 9.5t-12 27.5q-18 135 -103.5 201.5t-224.5 66.5q-157 0 -241.5 -86.5t-84.5 -261.5v-665q0 -175 84.5 -262t241.5 -87t242.5 87 t85.5 262v303h-326q-16 0 -25.5 11t-9.5 26t9.5 25.5t25.5 10.5h365q16 0 25 -11t9 -27v-338q0 -112 -30.5 -195t-86 -131.5t-126.5 -72t-158 -23.5t-157.5 23.5t-126 72t-85.5 131.5t-30 195z" />
<glyph unicode="H" horiz-adv-x="1140" d="M170 37v1425q0 17 11 26t26 9t26 -9t11 -26v-649h653v649q0 17 11 26t26 9t26 -9t11 -26v-1425q0 -18 -11 -27.5t-26 -9.5t-26 9.5t-11 27.5v702h-653v-702q0 -18 -11 -27.5t-26 -9.5t-26 9.5t-11 27.5z" />
<glyph unicode="I" horiz-adv-x="413" d="M170 37v1425q0 17 11 26t26 9t26 -9t11 -26v-1425q0 -18 -11 -27.5t-26 -9.5t-26 9.5t-11 27.5z" />
<glyph unicode="J" horiz-adv-x="1015" d="M53 326q0 20 10 30.5t25 10.5t27 -10t12 -27q0 -131 92.5 -200t235.5 -69q157 0 241 87t84 262v1013h-325q-16 0 -25.5 11.5t-9.5 27.5q0 14 9 24.5t26 10.5h362q15 0 26 -9.5t11 -27.5v-1050q0 -112 -30 -195t-85.5 -131.5t-126 -72t-157.5 -23.5q-184 0 -293 96.5 t-109 241.5z" />
<glyph unicode="K" horiz-adv-x="1040" d="M170 37v1425q0 17 11 26t26 9t26 -9t11 -26v-803l661 826q9 12 29 12q14 0 25.5 -12t11.5 -27q0 -12 -8 -20l-474 -588l529 -795q6 -9 6 -18q0 -15 -12 -26t-27 -11q-19 0 -31 18l-514 770l-196 -245v-506q0 -18 -11 -27.5t-26 -9.5t-26 9.5t-11 27.5z" />
<glyph unicode="L" horiz-adv-x="925" d="M170 37v1425q0 17 11 26t26 9t26 -9t11 -26v-1388h622q14 0 22.5 -11t8.5 -26t-8.5 -26t-22.5 -11h-659q-15 0 -26 9.5t-11 27.5z" />
<glyph unicode="M" horiz-adv-x="1337" d="M170 37v1425q0 35 37 35q6 0 13.5 -4.5t12.5 -10.5t12 -16t10 -15.5t8.5 -16t6.5 -11.5l398 -782l399 782q1 1 6.5 11.5t8.5 16t10 15.5t12 16t12.5 10.5t13.5 4.5q37 0 37 -35v-1425q0 -18 -11 -27.5t-26 -9.5t-25.5 9.5t-10.5 27.5v1280l-387 -746q-20 -39 -39 -39 q-22 0 -39 39l-385 746v-1280q0 -18 -11 -27.5t-26 -9.5t-26 9.5t-11 27.5z" />
<glyph unicode="N" horiz-adv-x="1140" d="M170 37v1425q0 35 37 35q6 0 13.5 -4.5t12.5 -10.5t12 -16t10 -15.5t8.5 -16t6.5 -11.5l627 -1241v1280q0 17 11 26t26 9t26 -9t11 -26v-1425q0 -18 -11 -27.5t-26 -9.5q-4 0 -8 1.5t-7.5 3.5t-7 6t-6 7t-6 8.5t-6 9t-5.5 10t-4.5 9.5l-5 10l-4.5 9l-630 1243v-1280 q0 -18 -11 -27.5t-26 -9.5t-26 9.5t-11 27.5z" />
<glyph unicode="O" horiz-adv-x="1112" d="M156 410v665q0 112 30 195t85.5 131.5t126 72t157.5 23.5t158 -23.5t126.5 -72t86 -131.5t30.5 -195v-665q0 -112 -30.5 -195t-86 -131.5t-126.5 -72t-158 -23.5t-157.5 23.5t-126 72t-85.5 131.5t-30 195zM229 410q0 -175 84.5 -262t241.5 -87t242.5 87t85.5 262v665 q0 175 -85.5 261.5t-242.5 86.5t-241.5 -86.5t-84.5 -261.5v-665z" />
<glyph unicode="P" horiz-adv-x="1050" d="M170 37v1425q0 14 10 24t27 11h362q87 0 158 -23.5t127 -72t86.5 -131.5t30.5 -195v-24q0 -112 -30.5 -195.5t-86.5 -132.5t-127 -72.5t-158 -23.5h-325v-590q0 -18 -11 -27.5t-26 -9.5t-26 9.5t-11 27.5zM244 700h325q157 0 242.5 88t85.5 263v24q0 175 -85.5 261.5 t-242.5 86.5h-325v-723z" />
<glyph unicode="Q" horiz-adv-x="1112" d="M156 410v665q0 112 30 195t85.5 131.5t126 72t157.5 23.5t158 -23.5t126.5 -72t86 -131.5t30.5 -195v-665q0 -208 -98 -310t-264 -110v-176q0 -18 -11 -27.5t-26 -9.5t-26 9.5t-11 27.5v176q-168 8 -266 109.5t-98 310.5zM229 410q0 -166 75 -253t216 -96v172q0 17 11 26 t26 9t26 -9t11 -26v-170q138 9 213.5 96t75.5 251v665q0 175 -85.5 261.5t-242.5 86.5t-241.5 -86.5t-84.5 -261.5v-665z" />
<glyph unicode="R" horiz-adv-x="1042" d="M170 37v1425q0 14 10 24t27 11h342q89 0 161.5 -20t133 -63.5t94 -122t33.5 -185.5q0 -95 -26.5 -167.5t-75 -117.5t-108 -70t-134.5 -34l338 -658q6 -12 6 -22q0 -15 -11 -26t-26 -11q-6 0 -11.5 2.5t-10.5 7.5t-9 9.5t-8.5 13.5t-7 13.5t-7.5 14.5t-6 13l-327 639h-303 v-676q0 -18 -11 -27.5t-26 -9.5t-26 9.5t-11 27.5zM244 786h305q162 0 255 78.5t93 241.5t-93 240t-255 77h-305v-637z" />
<glyph unicode="S" horiz-adv-x="985" d="M86 195q0 15 12 29t23 14q10 0 24 -18t37 -44t57 -52.5t94.5 -44.5t137.5 -18q167 0 254.5 84.5t87.5 247.5q0 83 -23.5 146t-63.5 101t-92 66t-109 47.5l-114 39t-109 46.5t-92 64t-63.5 98t-23.5 142q0 85 26.5 150.5t66.5 103t96 61t107 31.5t107 8q122 0 223 -34.5 t101 -71.5q0 -13 -12 -29t-25 -16q-8 0 -43 19t-100 38.5t-146 19.5q-50 0 -93.5 -7t-87.5 -26t-75.5 -49t-51 -79t-19.5 -113q0 -70 23.5 -122t63.5 -83.5t92 -54.5t109 -42t114 -39.5t109 -52.5t92 -76t63.5 -115.5t23.5 -164.5q0 -209 -109.5 -310t-296.5 -101 q-92 0 -171 24.5t-125.5 59t-72.5 67.5t-26 56z" />
<glyph unicode="T" d="M29 1460q0 14 10.5 25.5t26.5 11.5h800q18 0 27.5 -10t9.5 -25q0 -16 -9 -27.5t-28 -11.5h-362v-1386q0 -18 -11 -27.5t-26 -9.5t-26 9.5t-11 27.5v1386h-364q-16 0 -26.5 11.5t-10.5 25.5z" />
<glyph unicode="U" horiz-adv-x="1124" d="M162 410v1052q0 17 11 26t26 9t26 -9t11 -26v-1052q0 -175 84 -262t241 -87t242.5 87t85.5 262v1052q0 17 11 26t26 9t26 -9t11 -26v-1052q0 -112 -30.5 -195t-86.5 -131.5t-127 -72t-158 -23.5t-157.5 23.5t-126 72t-85.5 131.5t-30 195z" />
<glyph unicode="V" horiz-adv-x="1062" d="M49 1464q0 14 11.5 23.5t25.5 9.5q28 0 37 -27l409 -1327l408 1327q9 27 33 27q15 0 28 -11t13 -24q0 -2 -1 -5t-1 -5l-441 -1436q-9 -28 -39 -28q-28 0 -36 28l-445 1436q-2 4 -2 12z" />
<glyph unicode="W" horiz-adv-x="1513" d="M53 1464q0 16 10 24.5t25 8.5q13 0 24.5 -7.5t14.5 -19.5l369 -1327l217 789q10 35 45 35q16 0 25.5 -7t15.5 -28l221 -789l366 1327q3 12 14.5 19.5t24.5 7.5q15 0 25 -8.5t10 -24.5q0 -6 -2 -12l-399 -1436q-9 -28 -39 -28q-31 0 -37 28l-225 803l-223 -803 q-9 -28 -39 -28q-31 0 -37 28l-404 1436q-2 6 -2 12z" />
<glyph unicode="X" horiz-adv-x="915" d="M57 37q0 10 6 22l353 691l-348 684q-11 22 -11 34q0 29 37 29q27 0 59 -67q2 -5 3 -7l301 -594l303 594l5.5 11t6 13t6 12t7.5 12l7.5 10t8.5 9t9.5 5t10.5 2q37 0 37 -29q0 -14 -10 -34l-350 -684l354 -691q6 -12 6 -22q0 -15 -11 -26t-26 -11q-7 0 -13.5 4t-11.5 8.5 t-10.5 14t-8.5 15t-8 17.5t-7 15l-305 596l-303 -596q-1 -3 -6 -13t-7.5 -14.5t-7 -13.5t-8.5 -13.5t-9 -9.5t-10.5 -7.5t-11.5 -2.5q-15 0 -26 11t-11 26z" />
<glyph unicode="Y" horiz-adv-x="1042" d="M45 1464q0 15 8 24t19 9q24 0 41 -35l407 -821l410 821q17 35 41 35q11 0 17.5 -9t6.5 -24q0 -21 -10 -41l-426 -852q-2 -4 -2 -12v-522q0 -18 -11 -27.5t-26 -9.5t-26 9.5t-11 27.5v522q0 8 -2 12l-424 852q-12 24 -12 41z" />
<glyph unicode="Z" horiz-adv-x="950" d="M55 35q0 12 6 24l717 1364h-665q-18 0 -27.5 11t-9.5 26t9.5 26t27.5 11h727q37 0 37 -31q0 -14 -11 -32l-714 -1360h708q18 0 27.5 -11t9.5 -26t-9.5 -26t-27.5 -11h-768q-15 0 -26 10t-11 25z" />
<glyph unicode="[" horiz-adv-x="583" d="M152 -8v1546q0 14 10.5 24.5t25.5 10.5h320q14 0 24.5 -10.5t10.5 -24.5q0 -15 -10.5 -26t-24.5 -11h-283v-1472h283q14 0 24.5 -11t10.5 -26q0 -14 -10.5 -24.5t-24.5 -10.5h-320q-14 0 -25 10t-11 25z" />
<glyph unicode="\" horiz-adv-x="696" d="M57 1505q0 18 11 28.5t26 10.5q23 0 29 -18l516 -1483q2 -4 2 -12q0 -13 -10.5 -22t-24.5 -9q-27 0 -35 25l-512 1464q-2 6 -2 16z" />
<glyph unicode="]" horiz-adv-x="583" d="M41 -8q0 15 10.5 26t24.5 11h282v1472h-282q-14 0 -24.5 11t-10.5 26q0 14 10.5 24.5t24.5 10.5h319q15 0 26 -10.5t11 -24.5v-1546q0 -15 -11.5 -25t-25.5 -10h-319q-14 0 -24.5 10.5t-10.5 24.5z" />
<glyph unicode="^" horiz-adv-x="532" d="M0 1268q0 19 18 28l213 115q17 10 35 10t35 -10l213 -113q18 -9 18 -34q0 -13 -10 -23t-24 -10q-1 0 -19 6l-213 113l-213 -115q-2 -1 -8 -3.5t-8 -2.5q-14 0 -25.5 11t-11.5 28z" />
<glyph unicode="_" horiz-adv-x="706" d="M-8 -37q0 15 10 26t25 11h655q14 0 25.5 -11t11.5 -26t-11.5 -25t-25.5 -10h-655q-15 0 -25 10t-10 25z" />
<glyph unicode="`" horiz-adv-x="272" d="M0 1384q0 14 9.5 25.5t23.5 11.5q6 0 14 -4l209 -123q16 -8 16 -26q0 -15 -12 -26t-27 -11q-9 0 -18 6l-195 111q-20 11 -20 36z" />
<glyph unicode="a" horiz-adv-x="866" d="M72 258q0 79 33.5 133t99.5 83.5t148 41.5t196 12h115v58q0 60 -15.5 115.5t-46.5 102.5t-85 75t-124 28q-56 0 -103 -13.5t-74.5 -27.5t-35.5 -14q-16 0 -26.5 14t-10.5 27q0 30 81 58t173 28q91 0 158.5 -32t105.5 -89t56 -124.5t18 -147.5v-549q0 -15 -10 -26t-25 -11 t-25.5 11t-10.5 26v106q-136 -155 -308 -155q-126 0 -205 69t-79 201zM143 258q0 -98 58.5 -148.5t152.5 -50.5q73 0 147 38t118.5 91t44.5 97v172h-113q-72 0 -124.5 -3.5t-109.5 -15.5t-92.5 -33t-58.5 -58t-23 -89z" />
<glyph unicode="b" horiz-adv-x="958" d="M141 37v1501q0 15 10 25t25 10t26 -10t11 -25v-715q38 67 108 111.5t166 44.5q151 0 260 -108.5t109 -260.5v-250q0 -96 -50 -182t-134.5 -138t-179.5 -52q-91 0 -167.5 44.5t-111.5 110.5v-106q0 -14 -11 -25.5t-26 -11.5t-25 11.5t-10 25.5zM213 285q0 -27 22 -65 t58 -74t91 -61.5t112 -25.5q116 0 202 92t86 209v250q0 115 -86 206t-204 91q-111 0 -196 -82t-85 -215v-325z" />
<glyph unicode="c" horiz-adv-x="823" d="M106 360v246q0 165 95.5 269t279.5 104q113 0 191 -41.5t78 -79.5q0 -13 -11.5 -24t-25.5 -11q-10 0 -28.5 13t-39.5 29t-65 29t-99 13q-146 0 -224.5 -80t-78.5 -221v-246q0 -142 78.5 -221.5t226.5 -79.5q59 0 105 13t68 29t41 29t30 13q14 0 24.5 -10.5t10.5 -23.5 q0 -38 -81 -79.5t-200 -41.5q-184 0 -279.5 102.5t-95.5 269.5z" />
<glyph unicode="d" horiz-adv-x="958" d="M102 360v250q0 152 109 260.5t260 108.5q96 0 166 -44.5t108 -111.5v715q0 15 11 25t26 10t25 -10t10 -25v-1501q0 -14 -10 -25.5t-25 -11.5t-26 11.5t-11 25.5v106q-35 -66 -111.5 -110.5t-166.5 -44.5q-95 0 -180 52t-135 138t-50 182zM174 360q0 -117 86.5 -209 t202.5 -92q110 0 196 81.5t86 144.5v325q0 133 -84.5 215t-195.5 82q-118 0 -204.5 -91t-86.5 -206v-250z" />
<glyph unicode="e" horiz-adv-x="911" d="M104 360v256q0 148 108 255.5t257 107.5q148 0 255 -106t107 -263q0 -43 -10 -73t-23.5 -45.5t-39 -23.5t-44 -9.5t-52.5 -1.5h-486v-97q0 -138 96.5 -219.5t249.5 -81.5q59 0 104.5 13t67 29t40 29t30.5 13q13 0 25 -12.5t12 -24.5q0 -21 -32.5 -47.5t-100.5 -48.5 t-150 -22q-183 0 -298.5 103t-115.5 269zM176 528h461q75 0 99 14.5t24 61.5q0 117 -82.5 210t-208.5 93q-123 0 -208 -87t-85 -204v-88z" />
<glyph unicode="f" horiz-adv-x="591" d="M141 35v1173q0 148 108.5 256.5t256.5 108.5h20q15 0 26 -11t11 -26t-11 -25t-26 -10h-20q-122 0 -206.5 -88t-86.5 -205v-241h313q15 0 26 -10.5t11 -24.5q0 -15 -11 -26t-26 -11h-313v-860q0 -15 -12 -25t-27 -10q-14 0 -23.5 10t-9.5 25z" />
<glyph unicode="g" horiz-adv-x="913" d="M66 -221q0 86 53 142t133 85q-60 16 -92.5 50t-32.5 96q0 54 25 85.5t75 55.5q-106 92 -106 258v92q0 149 91 242.5t239 93.5t243 -98q28 53 72 89t82 36q22 0 32.5 -12t10.5 -29q0 -18 -11 -28.5t-26 -10.5q-74 0 -123 -95q51 -71 51 -188v-92q0 -147 -93 -243.5 t-240 -96.5q-95 0 -168 43q-82 -36 -82 -98q0 -42 35.5 -66t92.5 -33t126 -15t138.5 -18t126.5 -35t92.5 -73t35.5 -125q0 -131 -102 -203.5t-281 -72.5q-180 0 -288.5 71.5t-108.5 192.5zM137 -215q0 -92 86.5 -148.5t239.5 -56.5q150 0 230.5 56t80.5 153q0 40 -16 71 t-45.5 50.5t-62.5 32.5t-77.5 19.5t-79 10.5t-77.5 7t-64 6q-215 -61 -215 -201zM193 553q0 -118 70 -194t190 -76q118 0 188 75t70 193v92q0 116 -70 190t-190 74t-189 -74t-69 -190v-90z" />
<glyph unicode="h" horiz-adv-x="987" d="M141 37v1501q0 15 10 25t25 10t26 -10t11 -25v-715q38 67 108 111.5t166 44.5q151 0 260 -108.5t109 -260.5v-573q0 -18 -11 -27.5t-26 -9.5q-13 0 -24 10t-11 27v573q0 115 -86 206t-204 91q-111 0 -196 -82t-85 -215v-573q0 -14 -11 -25.5t-26 -11.5t-25 11.5t-10 25.5 z" />
<glyph unicode="i" horiz-adv-x="350" d="M109 1352q0 26 18.5 44.5t46.5 18.5q26 0 45 -18.5t19 -44.5t-19 -46t-45 -20q-27 0 -46 19.5t-19 46.5zM139 37v895q0 15 10.5 25t24.5 10q15 0 26 -10t11 -25v-895q0 -14 -11 -25.5t-26 -11.5q-13 0 -24 11.5t-11 25.5z" />
<glyph unicode="j" horiz-adv-x="354" d="M-74 -449q0 15 11 25t26 10q46 0 79 16t52 42t29.5 69t14 85.5t3.5 103.5v1030q0 15 10 25t25 10t26 -10t11 -25v-1030q0 -387 -250 -387q-15 0 -26 11t-11 25zM111 1352q0 26 18.5 44.5t46.5 18.5q26 0 45 -18.5t19 -44.5t-19 -46t-45 -20q-27 0 -46 19.5t-19 46.5z" />
<glyph unicode="k" horiz-adv-x="894" d="M141 37v1501q0 15 10 25t25 10t26 -10t11 -25v-1061l553 481q14 9 20 9q39 0 39 -33q0 -21 -12 -31l-330 -287l379 -559q6 -9 6 -20q0 -14 -10 -25.5t-24 -11.5q-17 0 -29 18l-377 551l-215 -188v-344q0 -14 -11 -25.5t-26 -11.5t-25 11.5t-10 25.5z" />
<glyph unicode="l" horiz-adv-x="387" d="M158 37v1501q0 15 10 25t25 10t25.5 -10t10.5 -25v-1501q0 -14 -10.5 -25.5t-25.5 -11.5t-25 11.5t-10 25.5z" />
<glyph unicode="m" horiz-adv-x="1570" d="M139 37v895q0 15 10 25t25 10t26 -10t11 -25v-109q38 67 108 111.5t166 44.5q104 0 185.5 -56t122.5 -149q52 101 135 153t176 52q137 0 236.5 -100t99.5 -269v-573q0 -14 -11 -25.5t-26 -11.5q-13 0 -24 11.5t-11 25.5v573q0 139 -81 218t-185 79q-108 0 -192.5 -80.5 t-84.5 -203.5v-588q0 -17 -11 -26t-26 -9q-14 0 -24 9t-10 26v586q0 121 -77.5 203.5t-187.5 82.5t-194 -82t-84 -215v-573q0 -14 -11 -25.5t-26 -11.5t-25 11.5t-10 25.5z" />
<glyph unicode="n" horiz-adv-x="985" d="M139 37v895q0 15 10 25t25 10t26 -10t11 -25v-109q38 67 108 111.5t166 44.5q151 0 260 -108.5t109 -260.5v-573q0 -18 -11 -27.5t-26 -9.5q-13 0 -24 10t-11 27v573q0 115 -86 206t-204 91q-111 0 -196 -82t-85 -215v-573q0 -14 -11 -25.5t-26 -11.5t-25 11.5t-10 25.5z " />
<glyph unicode="o" d="M102 360v250q0 149 107.5 259t255.5 110q147 0 255.5 -109t108.5 -260v-250q0 -96 -50 -182t-134.5 -138t-179.5 -52q-146 0 -254.5 112t-108.5 260zM174 360q0 -118 86 -209.5t205 -91.5t206 91.5t87 209.5v250q0 115 -86.5 206t-206.5 91t-205.5 -90.5t-85.5 -206.5 v-250z" />
<glyph unicode="p" horiz-adv-x="958" d="M141 -449v1381q0 15 10 25t25 10t26 -10t11 -25v-109q38 67 108 111.5t166 44.5q151 0 260 -108.5t109 -260.5v-250q0 -96 -50 -182t-134.5 -138t-179.5 -52q-91 0 -167.5 44.5t-111.5 110.5v-592q0 -14 -11 -25t-26 -11t-25 11t-10 25zM213 285q0 -27 22 -65t58 -74 t91 -61.5t112 -25.5q116 0 202 92t86 209v250q0 115 -86 206t-204 91q-111 0 -196 -82t-85 -215v-325z" />
<glyph unicode="q" horiz-adv-x="958" d="M102 360v250q0 152 109 260.5t260 108.5q96 0 166 -44.5t108 -111.5v109q0 15 11 25t26 10t25 -10t10 -25v-1381q0 -14 -10 -25t-25 -11t-26 11t-11 25v592q-35 -66 -111.5 -110.5t-166.5 -44.5q-95 0 -180 52t-135 138t-50 182zM174 360q0 -117 86.5 -209t202.5 -92 q110 0 196 81.5t86 144.5v325q0 133 -84.5 215t-195.5 82q-118 0 -204.5 -91t-86.5 -206v-250z" />
<glyph unicode="r" horiz-adv-x="630" d="M139 37v895q0 15 10 25t25 10t26 -10t11 -25v-109q39 67 112 111.5t173 44.5h75q14 0 24.5 -11t10.5 -26q0 -14 -11 -24.5t-24 -10.5h-75q-114 0 -199.5 -82t-85.5 -215v-573q0 -14 -11 -25.5t-26 -11.5t-25 11.5t-10 25.5z" />
<glyph unicode="s" horiz-adv-x="763" d="M78 121q0 13 8.5 24t19.5 11t31 -15t44.5 -33.5t76 -33.5t117.5 -15q122 0 180.5 47.5t58.5 122.5q0 64 -28.5 108.5t-74 67.5t-100.5 40.5t-110 35.5t-100.5 43t-74 73t-28.5 116q0 48 18 93.5t53 85t95.5 63.5t136.5 24q90 0 170 -28t80 -58q0 -12 -11 -26.5t-24 -14.5 q-9 0 -37 14t-75 27.5t-101 13.5q-62 0 -109.5 -18.5t-73 -48t-38 -61.5t-12.5 -64q0 -48 22 -83t58.5 -53.5t83 -35.5t94.5 -29t94.5 -34t83 -50t58.5 -78.5t22 -118.5q0 -114 -81.5 -179.5t-227.5 -65.5q-127 0 -213 45t-86 88z" />
<glyph unicode="t" horiz-adv-x="557" d="M135 285v1120q0 14 11 24.5t24 10.5q14 0 25.5 -10t11.5 -25v-438h276q14 0 24.5 -11t10.5 -26q0 -14 -11 -24.5t-24 -10.5h-276v-610q0 -117 50.5 -165t176.5 -48h47q14 0 24.5 -10t10.5 -25t-10.5 -26t-24.5 -11h-47q-149 0 -224 69t-75 216z" />
<glyph unicode="u" horiz-adv-x="989" d="M131 356v574q0 14 11 25.5t26 11.5q13 0 24 -11.5t11 -25.5v-574q0 -116 86 -206.5t207 -90.5q120 0 205 89.5t85 207.5v576q0 14 11 24.5t26 10.5t25 -10.5t10 -24.5v-576q0 -148 -107.5 -258t-254.5 -110q-149 0 -257 110t-108 258z" />
<glyph unicode="v" horiz-adv-x="802" d="M39 930q0 15 11 26t26 11q25 0 35 -23l290 -805l289 793q1 2 3 8t3 8.5t3.5 7t5.5 6.5t8 3.5t12 1.5q14 0 26.5 -10.5t12.5 -24.5q0 -7 -8 -31l-320 -889q-10 -24 -35 -24t-34 24l-320 889q-8 24 -8 29z" />
<glyph unicode="w" horiz-adv-x="1339" d="M39 930q0 15 11 26t26 11q25 0 35 -23l288 -801l236 742q10 26 37 26t37 -26l227 -752l295 811q7 23 33 23q16 0 26 -9t10 -26q0 -13 -8 -29l-321 -891q-8 -24 -31 -24q-11 0 -17 4.5t-12 17.5l-239 768l-236 -755q-11 -35 -35 -35q-14 0 -20.5 6.5t-13.5 28.5l-320 880 q-8 16 -8 27z" />
<glyph unicode="x" horiz-adv-x="780" d="M55 23q0 11 6 20l285 444l-285 437q-6 9 -6 18q0 15 11 26t26 11q21 0 31 -16l268 -410l271 410q10 16 28 16q14 0 25.5 -10.5t11.5 -26.5q0 -9 -6 -18l-287 -437l287 -444q6 -9 6 -20q0 -14 -11 -24.5t-26 -10.5q-18 0 -28 16l-271 416l-268 -416q-13 -16 -31 -16 q-15 0 -26 10.5t-11 24.5z" />
<glyph unicode="y" horiz-adv-x="808" d="M37 944q0 13 12 24t27 11q26 0 33 -23l297 -819l294 819q10 23 33 23q15 0 26 -9.5t11 -25.5q0 -8 -2 -12l-328 -905q-79 -218 -129 -311q-108 -201 -237 -201q-14 0 -24.5 9.5t-10.5 24.5q0 37 31 37q41 0 78.5 26t66 66t56.5 99t48.5 113t43.5 119l6 18l-328 905 q-4 8 -4 12z" />
<glyph unicode="z" horiz-adv-x="788" d="M53 33q0 16 8 24l547 838h-497q-15 0 -26 10.5t-11 24.5q0 15 11 26t26 11h567q15 0 26 -11t11 -26q0 -12 -6 -21l-549 -837h538q15 0 26 -11t11 -26q0 -14 -11 -24.5t-26 -10.5h-608q-15 0 -26 10t-11 23z" />
<glyph unicode="{" horiz-adv-x="583" d="M70 786q0 22 19 31t42.5 9t42.5 8.5t19 29.5q0 15 -21.5 180.5t-21.5 198.5q0 133 105 231.5t253 98.5q14 0 24.5 -10.5t10.5 -24.5q0 -15 -10.5 -26t-24.5 -11q-122 0 -203.5 -80t-81.5 -184q0 -35 21.5 -196t21.5 -177q0 -30 -22.5 -51t-46.5 -27q25 -8 47 -27t22 -48 q0 -20 -21.5 -214t-21.5 -237q0 -63 31 -111t78 -72t92 -35t84 -11q18 0 26.5 -11t8.5 -24q0 -16 -11 -26.5t-24 -10.5q-153 0 -255.5 85t-102.5 220q0 38 21.5 234.5t21.5 212.5q0 21 -19 29t-42.5 7t-42.5 7.5t-19 31.5z" />
<glyph unicode="|" horiz-adv-x="376" d="M152 -8v1546q0 14 10.5 24.5t25.5 10.5q14 0 25.5 -11t11.5 -24v-1546q0 -13 -11.5 -24t-25.5 -11q-15 0 -25.5 10.5t-10.5 24.5z" />
<glyph unicode="}" horiz-adv-x="583" d="M41 -4q0 13 8.5 24t26.5 11q30 0 65 6t74.5 23t71 41.5t52.5 66t21 92.5q0 43 -21.5 237t-21.5 214q0 29 22 48t48 27q-25 6 -47.5 26.5t-22.5 51.5q0 16 21.5 177t21.5 196q0 104 -81 184t-203 80q-14 0 -24.5 11t-10.5 26q0 14 10.5 24.5t24.5 10.5q148 0 253 -98.5 t105 -231.5q0 -33 -21.5 -198.5t-21.5 -180.5q0 -21 19 -29.5t42.5 -8.5t42.5 -9t19 -31q0 -23 -19 -31.5t-42.5 -7.5t-42.5 -7t-19 -29q0 -16 21.5 -212.5t21.5 -234.5q0 -135 -102.5 -220t-255.5 -85q-13 0 -24 10.5t-11 26.5z" />
<glyph unicode="~" horiz-adv-x="819" d="M109 496q0 38 62 72t120 34q49 0 128 -38t132 -38q32 0 55.5 10.5t34 22.5t22 22.5t21.5 10.5q11 0 20 -9t9 -22q0 -44 -58 -74t-114 -30q-47 0 -126 37.5t-139 37.5q-30 0 -55 -11t-38 -24.5t-26 -24.5t-22 -11q-11 0 -18.5 9t-7.5 26z" />
<glyph unicode="&#xa1;" horiz-adv-x="395" d="M125 1458q0 30 21 52t53 22q29 0 50 -22t21 -52q0 -31 -21 -52.5t-50 -21.5q-32 0 -53 21.5t-21 52.5zM143 51q0 185 11.5 568t11.5 567q0 14 10 23.5t21 9.5q10 0 21 -9.5t11 -23.5q0 -184 11.5 -567t11.5 -568q0 -30 -15.5 -46.5t-39.5 -16.5t-39 16.5t-15 46.5z" />
<glyph unicode="&#xa2;" horiz-adv-x="831" d="M84 729v41q0 145 73 244t218 123v249q0 14 11 24.5t26 10.5q14 0 25.5 -11t11.5 -24v-243q115 0 202.5 -37t87.5 -82q0 -16 -12 -26.5t-27 -10.5q-11 0 -30 13t-41.5 29t-70.5 29t-109 13v-643q62 0 110 13t69.5 29t40.5 29t31 13q15 0 27 -10.5t12 -26.5 q0 -46 -91 -82.5t-199 -36.5v-239q0 -13 -11.5 -24t-25.5 -11q-15 0 -26 10.5t-11 24.5v245q-142 23 -216.5 122t-74.5 245zM156 729q0 -120 55 -196t164 -97v627q-109 -23 -164 -98.5t-55 -194.5v-41z" />
<glyph unicode="&#xa3;" horiz-adv-x="944" d="M51 37q0 15 9.5 26t27.5 11h129l94 678h-176q-15 0 -25 9.5t-10 24.5t10 26t25 11h187l55 385q22 149 143.5 257t272.5 108h24q19 0 30 -11t11 -26q0 -13 -11 -24t-30 -11h-35q-122 0 -218.5 -88t-114.5 -205l-56 -385h334q16 0 24.5 -11t8.5 -26q0 -13 -8.5 -23.5 t-24.5 -10.5h-344l-96 -678h538q14 0 23.5 -11.5t9.5 -25.5t-9.5 -25.5t-23.5 -11.5h-737q-18 0 -27.5 11t-9.5 26z" />
<glyph unicode="&#xa4;" horiz-adv-x="1001" d="M139 647q0 14 11 25l69 69q-78 100 -78 226q0 124 76 223l-53 55q-10 10 -10 27q0 15 11 25t25 10t25 -11l51 -53q102 92 238 92q124 0 225 -82l57 58q10 10 27 10q13 0 24 -10.5t11 -24.5q0 -16 -10 -26l-58 -58q88 -101 88 -235q0 -128 -90 -236l60 -59q10 -13 10 -25 t-11 -23.5t-24 -11.5q-17 0 -25 11l-59 57q-102 -86 -225 -86q-131 0 -238 96l-67 -67q-11 -11 -25 -11t-24.5 11t-10.5 24zM219 967q0 -116 84 -205.5t201 -89.5t202 89.5t85 205.5q0 113 -84.5 201.5t-202.5 88.5q-117 0 -201 -88.5t-84 -201.5z" />
<glyph unicode="&#xa5;" horiz-adv-x="980" d="M55 1462q0 13 10.5 24t26.5 11q24 0 35 -20l356 -709l377 709q11 20 35 20q14 0 23.5 -10t9.5 -25q0 -10 -2 -14l-389 -741h249q14 0 25.5 -11t11.5 -26t-11.5 -25t-25.5 -10h-268v-160h268q14 0 25.5 -11t11.5 -26t-11.5 -25t-25.5 -10h-268v-368q0 -14 -10 -24.5 t-25 -10.5t-26 10.5t-11 24.5v368h-253q-15 0 -25 10t-10 25t10 26t25 11h253v160h-253q-15 0 -25 10t-10 25t10 26t25 11h235l-369 741q-4 8 -4 14z" />
<glyph unicode="&#xa6;" horiz-adv-x="380" d="M154 -8v577q0 14 10.5 24.5t25.5 10.5q14 0 25.5 -11t11.5 -24v-577q0 -13 -11.5 -24t-25.5 -11q-15 0 -25.5 10.5t-10.5 24.5zM154 961v577q0 14 10.5 24.5t25.5 10.5q14 0 25.5 -11t11.5 -24v-577q0 -13 -11.5 -24t-25.5 -11q-15 0 -25.5 10.5t-10.5 24.5z" />
<glyph unicode="&#xa7;" horiz-adv-x="944" d="M106 203q0 20 11.5 30.5t27.5 10.5q17 0 26 -11t9 -26q0 -30 7 -62.5t26.5 -70.5t49 -67t80.5 -48.5t116 -19.5q139 0 216 75.5t77 216.5q0 61 -21 106t-56 72.5t-81 47.5t-96.5 36t-100.5 32.5t-96 42t-81 60.5t-56 91.5t-21 130.5v270q0 88 21.5 156t55 109t79.5 67 t89 35.5t89 9.5q150 0 230.5 -87.5t80.5 -235.5q0 -24 -11 -35t-27 -11q-39 0 -39 52q0 29 -5.5 58.5t-21.5 64t-40.5 60t-66.5 43t-96 17.5q-48 0 -92 -15t-84 -47.5t-64 -94.5t-24 -146q0 -61 21 -106t56 -72.5t80.5 -48t96 -36t101 -32.5t96 -42t80.5 -59.5t56 -91 t21 -130.5v-266q0 -185 -98 -278t-256 -93q-161 0 -263 97t-102 241zM217 854q0 -77 29.5 -131.5t75 -82.5t106 -52t117 -40t114.5 -46.5t93 -71.5v68q0 77 -29.5 131.5t-75 82t-106 51.5t-117 39.5t-114.5 46t-93 71.5v-66z" />
<glyph unicode="&#xa8;" horiz-adv-x="348" d="M0 1290q0 26 17 43t44 17q26 0 43 -17t17 -43t-17 -43.5t-43 -17.5q-27 0 -44 17t-17 44zM227 1290q0 26 17 43t45 17q26 0 42.5 -17t16.5 -43t-16.5 -43.5t-42.5 -17.5q-27 0 -44.5 17.5t-17.5 43.5z" />
<glyph unicode="&#xa9;" horiz-adv-x="1490" d="M117 733q0 132 38.5 244.5t102.5 189.5t147.5 131.5t171 79.5t175.5 25t175.5 -25.5t168.5 -80t142.5 -131t98.5 -186.5t37 -239q0 -132 -38.5 -244.5t-102.5 -189t-147.5 -131t-171 -79.5t-175.5 -25t-175.5 25.5t-168.5 80t-142.5 130.5t-98.5 186t-37 239zM188 733 q0 -170 68.5 -304t194.5 -210t288 -76q246 0 405 167t159 431q0 170 -68.5 304t-194.5 210t-288 76q-246 0 -405 -167t-159 -431zM547 580v342q0 122 56 179.5t145 57.5q92 0 146 -54t54 -132q0 -27 -8 -36t-29 -9q-37 0 -37 28q-6 134 -124 134q-129 0 -129 -168v-342 q0 -168 131 -168q37 0 62 12.5t37 37.5t16 42t7 45q3 29 37 29q20 0 28.5 -10t8.5 -36q0 -79 -55.5 -133.5t-147.5 -54.5q-89 0 -143.5 57t-54.5 179z" />
<glyph unicode="&#xaa;" horiz-adv-x="626" d="M80 1049q0 50 21 84.5t62 53t92.5 26.5t121.5 8h65v30q0 73 -38 127t-115 54q-37 0 -66.5 -9t-46 -18.5t-22.5 -9.5q-14 0 -22.5 12.5t-8.5 26.5q0 23 54 43t114 20q116 0 170.5 -70t54.5 -176v-331q0 -13 -10 -22t-27 -9q-14 0 -24.5 9.5t-10.5 21.5v57 q-78 -89 -178 -94q-35 0 -51 2q-62 9 -98.5 50.5t-36.5 113.5zM154 1053q0 -54 32 -81.5t82 -27.5q63 0 118.5 45.5t55.5 89.5v86h-63q-51 0 -86 -3.5t-69.5 -14.5t-52 -34.5t-17.5 -59.5z" />
<glyph unicode="&#xab;" horiz-adv-x="739" d="M82 567q0 18 10 35l197 365q9 18 35 18q13 0 22.5 -10.5t9.5 -24.5q0 -9 -6 -18l-196 -365l196 -362q6 -9 6 -19q0 -14 -11.5 -24t-25.5 -10q-20 0 -30 18l-197 362q-10 17 -10 35zM381 567q0 18 10 35l197 365q9 18 35 18q13 0 22.5 -10.5t9.5 -24.5q0 -9 -6 -18 l-196 -365l196 -362q6 -9 6 -19q0 -14 -11.5 -24t-25.5 -10q-20 0 -30 18l-197 362q-10 17 -10 35z" />
<glyph unicode="&#xac;" horiz-adv-x="980" d="M125 492q0 15 10 25.5t25 10.5h635q14 0 25 -10.5t11 -25.5v-328q0 -15 -9.5 -25t-24.5 -10t-26 10t-11 25v293h-600q-15 0 -25 10t-10 25z" />
<glyph unicode="&#xad;" d="M102 492q0 15 10 25.5t25 10.5h656q14 0 25 -10.5t11 -25.5t-11 -25t-25 -10h-656q-15 0 -25 10t-10 25z" />
<glyph unicode="&#xae;" horiz-adv-x="1490" d="M117 733q0 132 38.5 244.5t102.5 189.5t147.5 131.5t171 79.5t175.5 25t175.5 -25.5t168.5 -80t142.5 -131t98.5 -186.5t37 -239q0 -132 -38.5 -244.5t-102.5 -189t-147.5 -131t-171 -79.5t-175.5 -25t-175.5 25.5t-168.5 80t-142.5 130.5t-98.5 186t-37 239zM188 733 q0 -170 68.5 -304t194.5 -210t288 -76q246 0 405 167t159 431q0 170 -68.5 304t-194.5 210t-288 76q-246 0 -405 -167t-159 -431zM563 375v751q0 11 7.5 19.5t19.5 9.5h172q94 0 150.5 -51t56.5 -168q0 -185 -144 -213l142 -326q4 -12 4 -14q0 -15 -14 -27t-29 -12 q-18 0 -35 39l-150 332h-106v-340q0 -13 -11.5 -21t-25.5 -8t-25.5 8t-11.5 21zM637 778h125q133 0 133 154q0 153 -133 153h-125v-307z" />
<glyph unicode="&#xaf;" horiz-adv-x="522" d="M0 1360q0 15 10 26t25 11h450q14 0 25.5 -11t11.5 -26t-11.5 -25t-25.5 -10h-450q-15 0 -25 10t-10 25z" />
<glyph unicode="&#xb0;" horiz-adv-x="878" d="M76 1204q0 149 107 259t255 110q147 0 256 -109t109 -260q0 -96 -50 -182.5t-135 -138.5t-180 -52q-146 0 -254 112.5t-108 260.5zM154 1204q0 -116 83.5 -205.5t200.5 -89.5t202 89.5t85 205.5q0 113 -85 202t-202 89t-200.5 -89t-83.5 -202z" />
<glyph unicode="&#xb1;" horiz-adv-x="976" d="M125 174q0 15 10 26t25 11h655q14 0 25.5 -11t11.5 -26t-11.5 -25t-25.5 -10h-655q-15 0 -25 10t-10 25zM125 707q0 15 10 25.5t25 10.5h293v291q0 14 10.5 25.5t25.5 11.5t25 -11.5t10 -25.5v-291h291q14 0 25.5 -10.5t11.5 -25.5t-11.5 -25t-25.5 -10h-291v-293 q0 -15 -10 -25t-25 -10t-25.5 10t-10.5 25v293h-293q-15 0 -25 10t-10 25z" />
<glyph unicode="&#xb2;" horiz-adv-x="612" d="M76 774v98q0 47 40 91.5t97 81t114.5 73.5t97.5 83t40 95q0 55 -41.5 95.5t-118.5 40.5q-64 0 -102.5 -31t-38.5 -90q0 -10 -10.5 -18.5t-26.5 -8.5q-33 0 -33 41q0 75 61 123.5t152 48.5q98 0 161.5 -57.5t63.5 -141.5q0 -61 -40 -114.5t-97 -91.5t-113.5 -72.5 t-96.5 -72.5t-40 -75v-61h371q10 0 18.5 -9.5t8.5 -21.5t-8.5 -22t-18.5 -10h-407q-12 0 -22.5 7.5t-10.5 18.5z" />
<glyph unicode="&#xb3;" horiz-adv-x="626" d="M70 911q0 21 7 28t23 7q37 0 37 -28q0 -42 39 -77.5t127 -35.5q170 0 170 153v19q0 68 -44.5 101.5t-123.5 33.5q-14 0 -21.5 8.5t-7.5 20.5q0 30 29 30q74 0 110 30t36 102q0 66 -34.5 98.5t-107.5 32.5q-84 0 -117.5 -33.5t-33.5 -75.5q0 -33 -33 -33q-20 0 -27.5 8 t-7.5 31q0 24 9.5 49.5t32 53.5t69 45.5t110.5 17.5q207 0 207 -180q0 -67 -26 -111.5t-68 -62.5q117 -43 117 -166v-19q0 -112 -65 -164.5t-171 -52.5q-112 0 -173.5 52t-61.5 118z" />
<glyph unicode="&#xb4;" horiz-adv-x="272" d="M0 1268q0 18 16 26l209 123q8 4 15 4q14 0 23 -11.5t9 -25.5q0 -25 -20 -36l-195 -111q-9 -6 -18 -6q-15 0 -27 11t-12 26z" />
<glyph unicode="&#xb5;" horiz-adv-x="976" d="M158 -451v1381q0 14 10 25.5t25 11.5t25.5 -11.5t10.5 -25.5v-623q0 -34 25 -77t65 -81t95.5 -64t109.5 -26q109 0 193 91.5t84 205.5v574q0 17 11 27t24 10q15 0 25.5 -9.5t10.5 -27.5v-574q0 -153 -101 -260.5t-251 -107.5q-97 0 -176 45t-115 110v-594 q0 -15 -10.5 -24.5t-25.5 -9.5t-25 9.5t-10 24.5z" />
<glyph unicode="&#xb6;" horiz-adv-x="1048" d="M78 1051v24q0 112 30.5 195t86 131.5t126.5 72t158 23.5h363q15 0 26 -9.5t11 -27.5v-1425q0 -17 -11 -26t-26 -9t-26 9t-11 26v1388h-154v-1386q0 -18 -11 -27.5t-26 -9.5t-25.5 9.5t-10.5 27.5v590h-99q-87 0 -158 23.5t-126.5 72.5t-86 132.5t-30.5 195.5z" />
<glyph unicode="&#xb7;" horiz-adv-x="360" d="M109 614q0 31 20.5 52.5t52.5 21.5q29 0 50.5 -21.5t21.5 -52.5q0 -29 -21.5 -51t-50.5 -22q-32 0 -52.5 21.5t-20.5 51.5z" />
<glyph unicode="&#xb8;" horiz-adv-x="319" d="M0 -375q0 10 8.5 23.5t16.5 13.5l37 -14q36 -13 77 -13q60 0 86.5 24t26.5 60q0 45 -36.5 66.5t-106.5 26.5l-60 4l49 202h66l-37 -151q97 -3 144.5 -44t47.5 -99q0 -60 -45.5 -104t-121.5 -44q-47 0 -99.5 13t-52.5 36z" />
<glyph unicode="&#xb9;" horiz-adv-x="323" d="M47 1331q0 17 14 31l93 121q10 14 28 14q11 0 20 -7.5t9 -19.5v-696q0 -13 -10 -19.5t-23 -6.5q-35 0 -35 26v606l-47 -65q-7 -12 -20 -12q-12 0 -20.5 8.5t-8.5 19.5z" />
<glyph unicode="&#xba;" horiz-adv-x="655" d="M90 1118v144q0 94 70 164.5t168 70.5q96 0 166.5 -69.5t70.5 -165.5v-144q0 -94 -71 -165.5t-166 -71.5t-166.5 71.5t-71.5 165.5zM164 1118q0 -66 48.5 -118t115.5 -52q66 0 115 52t49 118v144q0 64 -48 114.5t-116 50.5t-116 -50.5t-48 -114.5v-144z" />
<glyph unicode="&#xbb;" horiz-adv-x="739" d="M84 186q0 10 6 19l197 362l-197 365q-6 9 -6 18q0 14 10 24.5t23 10.5q26 0 35 -18l196 -365q10 -17 10 -35t-10 -35l-196 -362q-10 -18 -31 -18q-14 0 -25.5 10t-11.5 24zM383 186q0 10 6 19l197 362l-197 365q-6 9 -6 18q0 14 10 24.5t23 10.5q26 0 35 -18l196 -365 q10 -17 10 -35t-10 -35l-196 -362q-10 -18 -31 -18q-14 0 -25.5 10t-11.5 24z" />
<glyph unicode="&#xbc;" horiz-adv-x="1185" d="M72 1331q0 17 14 31l92 121q10 14 29 14q11 0 20 -7.5t9 -19.5v-696q0 -13 -10 -19.5t-23 -6.5q-35 0 -35 26v606l-47 -65q-7 -12 -21 -12q-12 0 -20 8.5t-8 19.5zM141 -10q0 12 4 18l801 1548q8 17 27 17q13 0 25 -11.5t12 -27.5q0 -11 -6 -23l-795 -1529 q-11 -23 -35 -23q-13 0 -23 9t-10 22zM647 205q0 4 4 16l289 506q13 23 33 23q13 0 24 -8.5t11 -20.5q0 -6 -4 -14l-269 -465h234v196q0 11 9.5 18t22.5 7q14 0 24.5 -7t10.5 -18v-196h64q13 0 20.5 -10t7.5 -23t-8 -23t-20 -10h-64v-149q0 -13 -10 -20t-25 -7 q-13 0 -22.5 7t-9.5 20v149h-295q-12 0 -19.5 8.5t-7.5 20.5z" />
<glyph unicode="&#xbd;" horiz-adv-x="1245" d="M80 1331q0 17 14 31l92 121q10 14 29 14q11 0 20 -7.5t9 -19.5v-696q0 -13 -10 -19.5t-23 -6.5q-35 0 -35 26v606l-47 -65q-7 -12 -20 -12q-12 0 -20.5 8.5t-8.5 19.5zM117 -10q0 12 4 18l801 1548q8 17 26 17q13 0 25 -11.5t12 -27.5q0 -11 -6 -23l-795 -1529 q-12 -23 -34 -23q-13 0 -23 9t-10 22zM702 27v98q0 47 40 91.5t97.5 81t115 73.5t97.5 83t40 95q0 54 -41.5 94.5t-118.5 40.5q-64 0 -102.5 -31t-38.5 -90q0 -10 -10.5 -18t-26.5 -8q-33 0 -33 41q0 75 61 123.5t152 48.5q98 0 161.5 -57.5t63.5 -141.5q0 -61 -40 -114.5 t-96.5 -91.5t-113.5 -72.5t-97 -72.5t-40 -75v-62h371q10 0 18 -9t8 -21t-8 -22.5t-18 -10.5h-408q-11 0 -22 8t-11 19z" />
<glyph unicode="&#xbe;" horiz-adv-x="1447" d="M74 911q0 21 7 28t23 7q37 0 37 -28q0 -42 39 -77.5t127 -35.5q170 0 170 153v19q0 68 -44.5 101.5t-123.5 33.5q-28 0 -28 29q0 30 28 30q74 0 110 30t36 102q0 66 -34.5 98.5t-107.5 32.5q-84 0 -117.5 -33.5t-33.5 -75.5q0 -33 -33 -33q-20 0 -27.5 8t-7.5 31 q0 24 9.5 49.5t32 53.5t69 45.5t110.5 17.5q207 0 207 -180q0 -67 -26 -111.5t-68 -62.5q117 -43 117 -166v-19q0 -112 -65 -164.5t-171 -52.5q-112 0 -173.5 52t-61.5 118zM393 -10q0 12 4 18l801 1548q8 17 27 17q13 0 25 -11.5t12 -27.5q0 -9 -7 -23l-794 -1529 q-11 -23 -35 -23q-13 0 -23 9t-10 22zM911 205q0 4 4 16l289 506q13 23 33 23q13 0 24 -8.5t11 -20.5q0 -6 -4 -14l-269 -465h234v196q0 11 10 18t23 7q14 0 24 -6.5t10 -18.5v-196h64q13 0 21 -10t8 -23q0 -12 -8.5 -22.5t-20.5 -10.5h-64v-149q0 -27 -34 -27q-13 0 -23 7 t-10 20v149h-295q-12 0 -19.5 8.5t-7.5 20.5z" />
<glyph unicode="&#xbf;" horiz-adv-x="784" d="M78 360q0 78 21 145.5t57.5 118.5t71.5 88.5t77.5 77.5t61.5 64q37 47 46 115t9 215q0 17 10.5 26t24.5 9t24.5 -9t10.5 -26q0 -173 -16.5 -248.5t-55.5 -122.5q-20 -23 -61.5 -62.5t-73.5 -73t-65 -79.5t-51.5 -106t-18.5 -130q0 -143 78 -223t229 -80q59 0 106.5 13 t70.5 28t42 28t29 13t19 -10.5t9 -24.5q0 -40 -89 -79t-195 -39q-182 0 -276.5 104t-94.5 268zM385 1458q0 30 21 52t51 22q31 0 52 -22t21 -52q0 -31 -21 -52.5t-52 -21.5q-29 0 -50.5 21.5t-21.5 52.5z" />
<glyph unicode="&#xc0;" horiz-adv-x="1067" d="M51 33q0 8 2 12l445 1436q8 28 37 28t38 -28l441 -1436q0 -2 1 -5t1 -5q0 -13 -13 -24t-28 -11q-24 0 -33 27l-104 335h-611l-102 -335q-9 -27 -37 -27q-14 0 -25.5 9.5t-11.5 23.5zM250 436h565l-280 918zM397 1915q0 14 9.5 25.5t23.5 11.5q6 0 14 -4l209 -123 q17 -9 17 -27q0 -15 -12 -26t-27 -11q-10 0 -19 6l-194 111q-21 12 -21 37z" />
<glyph unicode="&#xc1;" horiz-adv-x="1067" d="M51 33q0 8 2 12l445 1436q8 28 37 28t38 -28l441 -1436q0 -2 1 -5t1 -5q0 -13 -13 -24t-28 -11q-24 0 -33 27l-104 335h-611l-102 -335q-9 -27 -37 -27q-14 0 -25.5 9.5t-11.5 23.5zM250 436h565l-280 918zM397 1798q0 18 17 27l209 123q8 4 14 4q14 0 23.5 -11.5 t9.5 -25.5q0 -25 -21 -37l-194 -111q-9 -6 -19 -6q-15 0 -27 11t-12 26z" />
<glyph unicode="&#xc2;" horiz-adv-x="1067" d="M51 33q0 8 2 12l445 1436q8 28 37 28t38 -28l441 -1436q0 -2 1 -5t1 -5q0 -13 -13 -24t-28 -11q-24 0 -33 27l-104 335h-611l-102 -335q-9 -27 -37 -27q-14 0 -25.5 9.5t-11.5 23.5zM250 436h565l-280 918zM266 1798q0 20 19 29l213 115q17 10 34 10q18 0 35 -10 l213 -113q19 -9 19 -35q0 -13 -10.5 -23t-24.5 -10q-1 0 -19 6l-213 113l-213 -115q-2 -1 -8 -3.5t-8 -2.5q-14 0 -25.5 11t-11.5 28z" />
<glyph unicode="&#xc3;" horiz-adv-x="1067" d="M51 33q0 8 2 12l445 1436q8 28 37 28t38 -28l441 -1436q0 -2 1 -5t1 -5q0 -13 -13 -24t-28 -11q-24 0 -33 27l-104 335h-611l-102 -335q-9 -27 -37 -27q-14 0 -25.5 9.5t-11.5 23.5zM231 1837q0 38 62.5 72.5t120.5 34.5q49 0 128 -38t132 -38q32 0 55.5 10t34 22.5 t22 22.5t21.5 10q11 0 20 -8.5t9 -21.5q0 -44 -58 -74.5t-114 -30.5q-47 0 -126 38t-139 38q-30 0 -55 -11t-38 -25t-26 -25t-22 -11q-11 0 -19 9.5t-8 25.5zM250 436h565l-280 918z" />
<glyph unicode="&#xc4;" horiz-adv-x="1067" d="M51 33q0 8 2 12l445 1436q8 28 37 28t38 -28l441 -1436q0 -2 1 -5t1 -5q0 -13 -13 -24t-28 -11q-24 0 -33 27l-104 335h-611l-102 -335q-9 -27 -37 -27q-14 0 -25.5 9.5t-11.5 23.5zM250 436h565l-280 918zM358 1821q0 26 17 42.5t45 16.5q26 0 42.5 -16.5t16.5 -42.5 q0 -27 -16.5 -44.5t-42.5 -17.5q-27 0 -44.5 17.5t-17.5 44.5zM586 1821q0 26 16.5 42.5t44.5 16.5q26 0 43 -16.5t17 -42.5t-17 -44t-43 -18q-27 0 -44 17.5t-17 44.5z" />
<glyph unicode="&#xc5;" horiz-adv-x="1067" d="M51 33q0 8 2 12l445 1436q8 28 37 28t38 -28l441 -1436q0 -2 1 -5t1 -5q0 -13 -13 -24t-28 -11q-24 0 -33 27l-104 335h-611l-102 -335q-9 -27 -37 -27q-14 0 -25.5 9.5t-11.5 23.5zM250 436h565l-280 918zM348 1917q0 74 54 130t130 56q72 0 128.5 -56.5t56.5 -129.5 q0 -75 -56.5 -133t-128.5 -58q-76 0 -130 57.5t-54 133.5zM397 1917q0 -55 40.5 -99t94.5 -44q53 0 93.5 44t40.5 99q0 49 -40.5 91t-93.5 42q-55 0 -95 -42t-40 -91z" />
<glyph unicode="&#xc6;" horiz-adv-x="1392" d="M162 47v1028q0 112 30.5 195t86 131.5t126.5 72t158 23.5h737q17 0 26 -10.5t9 -24.5q0 -16 -9.5 -27.5t-25.5 -11.5h-485v-637h328q16 0 25.5 -11t9.5 -27q0 -14 -9 -24.5t-26 -10.5h-328v-639h485q16 0 25.5 -11.5t9.5 -27.5q0 -14 -9 -24.5t-26 -10.5h-522 q-15 0 -26 9.5t-11 27.5v676h-505v-666q0 -24 -7 -35.5t-30 -11.5q-37 0 -37 47zM236 786h505v637h-178q-157 0 -242 -86.5t-85 -261.5v-289z" />
<glyph unicode="&#xc7;" horiz-adv-x="1048" d="M156 410v665q0 111 32 194.5t89 132t128.5 72t157.5 23.5q185 0 289 -95.5t104 -225.5q0 -34 -8 -46t-28 -12q-37 0 -37 37q-2 34 -10 66t-30 70.5t-55.5 66t-92 46.5t-134.5 19q-332 0 -332 -348v-665q0 -178 85.5 -263.5t254.5 -85.5q56 0 101.5 10t76 24.5t54.5 39 t37 44.5t23 51.5t13.5 50.5t8.5 49q1 11 3.5 18t11 13t22.5 6q19 0 27.5 -13t8.5 -47q0 -73 -36 -138.5t-111 -113.5t-178 -61l-31 -127q97 -3 145 -44t48 -99q0 -60 -46 -104t-122 -44q-47 0 -99.5 13t-52.5 36q0 10 8.5 23.5t16.5 13.5l36 -14q37 -13 78 -13q60 0 86.5 24 t26.5 60q0 45 -36.5 66.5t-106.5 26.5l-60 4l43 172h-8q-85 0 -155.5 23.5t-126.5 72t-87.5 131.5t-31.5 195z" />
<glyph unicode="&#xc8;" horiz-adv-x="1019" d="M170 37v1423q0 18 11 27.5t26 9.5h729q17 0 26 -10.5t9 -24.5q0 -16 -9.5 -27.5t-25.5 -11.5h-692v-637h327q16 0 25.5 -11t9.5 -27q0 -14 -9 -24.5t-26 -10.5h-327v-639h692q16 0 25.5 -11.5t9.5 -27.5q0 -14 -9 -24.5t-26 -10.5h-729q-15 0 -26 9.5t-11 27.5zM434 1915 q0 14 9.5 25.5t23.5 11.5q6 0 14 -4l209 -123q17 -9 17 -27q0 -15 -12 -26t-27 -11q-10 0 -19 6l-194 111q-21 12 -21 37z" />
<glyph unicode="&#xc9;" horiz-adv-x="1019" d="M170 37v1423q0 18 11 27.5t26 9.5h729q17 0 26 -10.5t9 -24.5q0 -16 -9.5 -27.5t-25.5 -11.5h-692v-637h327q16 0 25.5 -11t9.5 -27q0 -14 -9 -24.5t-26 -10.5h-327v-639h692q16 0 25.5 -11.5t9.5 -27.5q0 -14 -9 -24.5t-26 -10.5h-729q-15 0 -26 9.5t-11 27.5zM434 1798 q0 18 17 27l208 123q8 4 15 4q14 0 23.5 -11.5t9.5 -25.5q0 -25 -21 -37l-194 -111q-9 -6 -19 -6q-15 0 -27 11t-12 26z" />
<glyph unicode="&#xca;" horiz-adv-x="1019" d="M170 37v1423q0 18 11 27.5t26 9.5h729q17 0 26 -10.5t9 -24.5q0 -16 -9.5 -27.5t-25.5 -11.5h-692v-637h327q16 0 25.5 -11t9.5 -27q0 -14 -9 -24.5t-26 -10.5h-327v-639h692q16 0 25.5 -11.5t9.5 -27.5q0 -14 -9 -24.5t-26 -10.5h-729q-15 0 -26 9.5t-11 27.5zM303 1798 q0 20 19 29l213 115q17 10 34 10q18 0 35 -10l213 -113q19 -9 19 -35q0 -13 -10.5 -23t-24.5 -10q-1 0 -19 6l-213 113l-213 -115q-2 -1 -8 -3.5t-8 -2.5q-14 0 -25.5 11t-11.5 28z" />
<glyph unicode="&#xcb;" horiz-adv-x="1019" d="M170 37v1423q0 18 11 27.5t26 9.5h729q17 0 26 -10.5t9 -24.5q0 -16 -9.5 -27.5t-25.5 -11.5h-692v-637h327q16 0 25.5 -11t9.5 -27q0 -14 -9 -24.5t-26 -10.5h-327v-639h692q16 0 25.5 -11.5t9.5 -27.5q0 -14 -9 -24.5t-26 -10.5h-729q-15 0 -26 9.5t-11 27.5zM395 1821 q0 26 17 42.5t45 16.5q26 0 42.5 -16.5t16.5 -42.5q0 -27 -16.5 -44.5t-42.5 -17.5q-27 0 -44.5 17.5t-17.5 44.5zM623 1821q0 26 16.5 42.5t44.5 16.5q26 0 42.5 -16.5t16.5 -42.5q0 -27 -16.5 -44.5t-42.5 -17.5q-27 0 -44 17.5t-17 44.5z" />
<glyph unicode="&#xcc;" horiz-adv-x="413" d="M70 1915q0 14 9 25.5t23 11.5q7 0 15 -4l209 -123q16 -8 16 -27q0 -15 -12 -26t-27 -11q-9 0 -18 6l-195 111q-20 11 -20 37zM170 37v1425q0 17 11 26t26 9t26 -9t11 -26v-1425q0 -18 -11 -27.5t-26 -9.5t-26 9.5t-11 27.5z" />
<glyph unicode="&#xcd;" horiz-adv-x="413" d="M70 1798q0 19 16 27l209 123q8 4 14 4q14 0 23.5 -11.5t9.5 -25.5q0 -26 -20 -37l-195 -111q-9 -6 -18 -6q-15 0 -27 11t-12 26zM170 37v1425q0 17 11 26t26 9t26 -9t11 -26v-1425q0 -18 -11 -27.5t-26 -9.5t-26 9.5t-11 27.5z" />
<glyph unicode="&#xce;" horiz-adv-x="413" d="M-59 1798q0 20 18 29l213 115q17 10 35 10t35 -10l213 -113q18 -9 18 -35q0 -13 -10.5 -23t-24.5 -10l-18 6l-213 113l-213 -115q-2 -1 -6 -2.5t-6.5 -2.5t-4.5 -1q-14 0 -25 11t-11 28zM170 37v1425q0 17 11 26t26 9t26 -9t11 -26v-1425q0 -18 -11 -27.5t-26 -9.5 t-26 9.5t-11 27.5z" />
<glyph unicode="&#xcf;" horiz-adv-x="413" d="M33 1821q0 26 16.5 42.5t44.5 16.5q26 0 43 -16.5t17 -42.5t-17 -44t-43 -18q-27 0 -44 17.5t-17 44.5zM170 37v1425q0 17 11 26t26 9t26 -9t11 -26v-1425q0 -18 -11 -27.5t-26 -9.5t-26 9.5t-11 27.5zM260 1821q0 26 17 42.5t45 16.5q26 0 42.5 -16.5t16.5 -42.5 q0 -27 -16.5 -44.5t-42.5 -17.5q-27 0 -44.5 17.5t-17.5 44.5z" />
<glyph unicode="&#xd0;" horiz-adv-x="1146" d="M6 786q0 15 10 26t25 11h149v639q0 14 10 24.5t27 10.5h363q87 0 158 -23.5t126.5 -72t86 -131.5t30.5 -195v-653q0 -112 -30.5 -195t-86 -131.5t-126.5 -72t-158 -23.5h-363q-17 0 -27 10.5t-10 24.5v717h-149q-15 0 -25 9.5t-10 24.5zM264 74h326q157 0 242.5 86.5 t85.5 261.5v653q0 175 -85.5 261.5t-242.5 86.5h-326v-600h268q14 0 25.5 -11t11.5 -26q0 -14 -11.5 -24t-25.5 -10h-268v-678z" />
<glyph unicode="&#xd1;" horiz-adv-x="1140" d="M170 37v1425q0 35 37 35q6 0 13.5 -4.5t12.5 -10.5t12 -16t10 -15.5t8.5 -16t6.5 -11.5l627 -1241v1280q0 17 11 26t26 9t26 -9t11 -26v-1425q0 -18 -11 -27.5t-26 -9.5q-4 0 -8 1.5t-7.5 3.5t-7 6t-6 7t-6 8.5t-6 9t-5.5 10t-4.5 9.5l-5 10l-4.5 9l-630 1243v-1280 q0 -18 -11 -27.5t-26 -9.5t-26 9.5t-11 27.5zM268 1837q0 38 62.5 72.5t120.5 34.5q49 0 128 -38t132 -38q32 0 55.5 10t34 22.5t22 22.5t21.5 10q11 0 19.5 -8.5t8.5 -21.5q0 -44 -58 -74.5t-114 -30.5q-47 0 -125.5 38t-138.5 38q-30 0 -55 -11t-38 -25t-26 -25t-22 -11 q-11 0 -19 9.5t-8 25.5z" />
<glyph unicode="&#xd2;" horiz-adv-x="1112" d="M156 410v665q0 112 30 195t85.5 131.5t126 72t157.5 23.5t158 -23.5t126.5 -72t86 -131.5t30.5 -195v-665q0 -112 -30.5 -195t-86 -131.5t-126.5 -72t-158 -23.5t-157.5 23.5t-126 72t-85.5 131.5t-30 195zM229 410q0 -175 84.5 -262t241.5 -87t242.5 87t85.5 262v665 q0 175 -85.5 261.5t-242.5 86.5t-241.5 -86.5t-84.5 -261.5v-665zM420 1915q0 14 9.5 25.5t23.5 11.5q6 0 14 -4l209 -123q16 -8 16 -27q0 -15 -12 -26t-27 -11q-9 0 -18 6l-195 111q-20 11 -20 37z" />
<glyph unicode="&#xd3;" horiz-adv-x="1112" d="M156 410v665q0 112 30 195t85.5 131.5t126 72t157.5 23.5t158 -23.5t126.5 -72t86 -131.5t30.5 -195v-665q0 -112 -30.5 -195t-86 -131.5t-126.5 -72t-158 -23.5t-157.5 23.5t-126 72t-85.5 131.5t-30 195zM229 410q0 -175 84.5 -262t241.5 -87t242.5 87t85.5 262v665 q0 175 -85.5 261.5t-242.5 86.5t-241.5 -86.5t-84.5 -261.5v-665zM420 1798q0 19 16 27l209 123q8 4 14 4q14 0 23.5 -11.5t9.5 -25.5q0 -26 -20 -37l-195 -111q-9 -6 -18 -6q-15 0 -27 11t-12 26z" />
<glyph unicode="&#xd4;" horiz-adv-x="1112" d="M156 410v665q0 112 30 195t85.5 131.5t126 72t157.5 23.5t158 -23.5t126.5 -72t86 -131.5t30.5 -195v-665q0 -112 -30.5 -195t-86 -131.5t-126.5 -72t-158 -23.5t-157.5 23.5t-126 72t-85.5 131.5t-30 195zM229 410q0 -175 84.5 -262t241.5 -87t242.5 87t85.5 262v665 q0 175 -85.5 261.5t-242.5 86.5t-241.5 -86.5t-84.5 -261.5v-665zM289 1798q0 20 18 29l213 115q17 10 35 10t35 -10l213 -113q18 -9 18 -35q0 -13 -10.5 -23t-24.5 -10l-18 6l-213 113l-213 -115q-2 -1 -8 -3.5t-8 -2.5q-14 0 -25.5 11t-11.5 28z" />
<glyph unicode="&#xd5;" horiz-adv-x="1112" d="M156 410v665q0 112 30 195t85.5 131.5t126 72t157.5 23.5t158 -23.5t126.5 -72t86 -131.5t30.5 -195v-665q0 -112 -30.5 -195t-86 -131.5t-126.5 -72t-158 -23.5t-157.5 23.5t-126 72t-85.5 131.5t-30 195zM229 410q0 -175 84.5 -262t241.5 -87t242.5 87t85.5 262v665 q0 175 -85.5 261.5t-242.5 86.5t-241.5 -86.5t-84.5 -261.5v-665zM254 1837q0 38 62 72.5t120 34.5q50 0 129 -38t131 -38q32 0 55.5 10t34 22.5t22 22.5t21.5 10q11 0 20 -8.5t9 -21.5q0 -44 -58 -74.5t-114 -30.5q-47 0 -125.5 38t-138.5 38q-30 0 -55 -11t-38 -25 t-26 -25t-22 -11q-11 0 -19 9.5t-8 25.5z" />
<glyph unicode="&#xd6;" horiz-adv-x="1112" d="M156 410v665q0 112 30 195t85.5 131.5t126 72t157.5 23.5t158 -23.5t126.5 -72t86 -131.5t30.5 -195v-665q0 -112 -30.5 -195t-86 -131.5t-126.5 -72t-158 -23.5t-157.5 23.5t-126 72t-85.5 131.5t-30 195zM229 410q0 -175 84.5 -262t241.5 -87t242.5 87t85.5 262v665 q0 175 -85.5 261.5t-242.5 86.5t-241.5 -86.5t-84.5 -261.5v-665zM381 1821q0 26 16.5 42.5t44.5 16.5q26 0 43 -16.5t17 -42.5t-17 -44t-43 -18q-27 0 -44 17.5t-17 44.5zM608 1821q0 26 17 42.5t45 16.5q26 0 42.5 -16.5t16.5 -42.5q0 -27 -16.5 -44.5t-42.5 -17.5 q-27 0 -44.5 17.5t-17.5 44.5z" />
<glyph unicode="&#xd7;" horiz-adv-x="804" d="M135 332q0 14 10 24l207 207l-207 207q-10 10 -10 27q0 13 10.5 23.5t24.5 10.5q17 0 27 -10l204 -207l207 207q10 10 27 10q14 0 24.5 -10.5t10.5 -23.5q0 -16 -11 -27l-206 -207l206 -207q11 -11 11 -24t-10.5 -24t-24.5 -11q-15 0 -25 10l-209 207l-206 -207 q-10 -10 -25 -10q-14 0 -24.5 10.5t-10.5 24.5z" />
<glyph unicode="&#xd8;" horiz-adv-x="1112" d="M121 -10q0 12 4 18l82 158q-51 97 -51 244v665q0 112 30 195t85.5 131.5t126 72t157.5 23.5q183 0 289 -100l82 159q8 17 26 17q13 0 25 -11.5t12 -27.5q0 -11 -6 -23l-90 -174q63 -107 63 -262v-665q0 -112 -30.5 -195t-86 -131.5t-126.5 -72t-158 -23.5 q-203 0 -303 114l-64 -120q-12 -23 -34 -23q-13 0 -23 9t-10 22zM229 410q0 -85 23 -156l555 1071q-85 98 -252 98q-157 0 -241.5 -86.5t-84.5 -261.5v-665zM289 176q81 -115 266 -115q157 0 242.5 87t85.5 262v665q0 110 -33 180z" />
<glyph unicode="&#xd9;" horiz-adv-x="1124" d="M162 410v1052q0 17 11 26t26 9t26 -9t11 -26v-1052q0 -175 84 -262t241 -87t242.5 87t85.5 262v1052q0 17 11 26t26 9t26 -9t11 -26v-1052q0 -112 -30.5 -195t-86.5 -131.5t-127 -72t-158 -23.5t-157.5 23.5t-126 72t-85.5 131.5t-30 195zM426 1915q0 14 9.5 25.5 t23.5 11.5q6 0 14 -4l209 -123q16 -8 16 -27q0 -15 -12 -26t-27 -11q-9 0 -18 6l-195 111q-20 11 -20 37z" />
<glyph unicode="&#xda;" horiz-adv-x="1124" d="M162 410v1052q0 17 11 26t26 9t26 -9t11 -26v-1052q0 -175 84 -262t241 -87t242.5 87t85.5 262v1052q0 17 11 26t26 9t26 -9t11 -26v-1052q0 -112 -30.5 -195t-86.5 -131.5t-127 -72t-158 -23.5t-157.5 23.5t-126 72t-85.5 131.5t-30 195zM426 1798q0 19 16 27l209 123 q8 4 15 4q14 0 23 -11.5t9 -25.5q0 -26 -20 -37l-195 -111q-9 -6 -18 -6q-15 0 -27 11t-12 26z" />
<glyph unicode="&#xdb;" horiz-adv-x="1124" d="M162 410v1052q0 17 11 26t26 9t26 -9t11 -26v-1052q0 -175 84 -262t241 -87t242.5 87t85.5 262v1052q0 17 11 26t26 9t26 -9t11 -26v-1052q0 -112 -30.5 -195t-86.5 -131.5t-127 -72t-158 -23.5t-157.5 23.5t-126 72t-85.5 131.5t-30 195zM295 1798q0 20 18 29l213 115 q17 10 35 10t35 -10l213 -113q18 -9 18 -35q0 -13 -10 -23t-24 -10q-1 0 -19 6l-213 113l-213 -115q-2 -1 -8 -3.5t-8 -2.5q-14 0 -25.5 11t-11.5 28z" />
<glyph unicode="&#xdc;" horiz-adv-x="1124" d="M162 410v1052q0 17 11 26t26 9t26 -9t11 -26v-1052q0 -175 84 -262t241 -87t242.5 87t85.5 262v1052q0 17 11 26t26 9t26 -9t11 -26v-1052q0 -112 -30.5 -195t-86.5 -131.5t-127 -72t-158 -23.5t-157.5 23.5t-126 72t-85.5 131.5t-30 195zM387 1821q0 26 17 42.5t45 16.5 q26 0 42.5 -16.5t16.5 -42.5q0 -27 -16.5 -44.5t-42.5 -17.5q-27 0 -44.5 17.5t-17.5 44.5zM614 1821q0 26 17 42.5t45 16.5q26 0 42.5 -16.5t16.5 -42.5q0 -27 -16.5 -44.5t-42.5 -17.5q-27 0 -44.5 17.5t-17.5 44.5z" />
<glyph unicode="&#xdd;" horiz-adv-x="1042" d="M45 1464q0 15 8 24t19 9q24 0 41 -35l407 -821l410 821q17 35 41 35q11 0 17.5 -9t6.5 -24q0 -21 -10 -41l-426 -852q-2 -4 -2 -12v-522q0 -18 -11 -27.5t-26 -9.5t-26 9.5t-11 27.5v522q0 8 -2 12l-424 852q-12 24 -12 41zM383 1798q0 19 16 27l209 123q8 4 15 4 q14 0 23 -11.5t9 -25.5q0 -26 -20 -37l-195 -111q-9 -6 -18 -6q-15 0 -27 11t-12 26z" />
<glyph unicode="&#xde;" horiz-adv-x="989" d="M170 37v1427q0 16 10 24.5t25 8.5q17 0 27 -10t10 -25v-352q39 69 112.5 112.5t180.5 43.5q68 0 130 -19t111.5 -55t79 -94t29.5 -129v-394q0 -94 -52 -164.5t-128 -103.5t-160 -33q-99 0 -188 45.5t-115 114.5v-397q0 -14 -11 -25.5t-24 -11.5q-15 0 -26 11.5t-11 25.5z M242 575q0 -87 86.5 -158t210.5 -71q71 0 131.5 23.5t101.5 77t41 128.5v394q0 73 -40.5 125.5t-101 76t-132.5 23.5q-122 0 -209.5 -64t-87.5 -161v-394z" />
<glyph unicode="&#xdf;" horiz-adv-x="1081" d="M16 930q0 15 10 26t25 11h166v241q0 76 18 140.5t54.5 115.5t98 80t142.5 29q145 0 234.5 -93t89.5 -274q0 -121 -39 -224.5t-110 -135.5q106 -22 196 -140t90 -266v-39q0 -111 -29 -198t-77.5 -139t-107.5 -78.5t-124 -26.5q-36 0 -81.5 5t-93.5 23t-48 46 q0 14 9.5 24.5t21.5 10.5q9 0 31 -11t59 -22.5t82 -11.5q135 0 214 97.5t79 280.5v39q0 46 -10 91.5t-35.5 93t-63 84.5t-98.5 63t-137 31q-24 1 -35 3t-20 9t-9 21q0 16 10.5 24.5t22 10.5t33.5 3q61 4 103 35.5t61 81.5t26.5 95.5t7.5 95.5q0 152 -64 235.5t-188 83.5 q-66 0 -114 -24t-75 -66t-39.5 -92.5t-12.5 -110.5v-1173q0 -15 -12 -25t-27 -10q-14 0 -23.5 10t-9.5 25v860h-166q-15 0 -25 10t-10 25z" />
<glyph unicode="&#xe0;" horiz-adv-x="866" d="M72 258q0 79 33.5 133t99.5 83.5t148 41.5t196 12h115v58q0 60 -15.5 115.5t-46.5 102.5t-85 75t-124 28q-56 0 -103 -13.5t-74.5 -27.5t-35.5 -14q-16 0 -26.5 14t-10.5 27q0 30 81 58t173 28q91 0 158.5 -32t105.5 -89t56 -124.5t18 -147.5v-549q0 -15 -10 -26t-25 -11 t-25.5 11t-10.5 26v106q-136 -155 -308 -155q-126 0 -205 69t-79 201zM143 258q0 -98 58.5 -148.5t152.5 -50.5q73 0 147 38t118.5 91t44.5 97v172h-113q-72 0 -124.5 -3.5t-109.5 -15.5t-92.5 -33t-58.5 -58t-23 -89zM266 1384q0 14 9.5 25.5t23.5 11.5q6 0 14 -4l209 -123 q17 -8 17 -26q0 -15 -12 -26t-27 -11q-10 0 -19 6l-194 111q-21 12 -21 36z" />
<glyph unicode="&#xe1;" horiz-adv-x="866" d="M72 258q0 79 33.5 133t99.5 83.5t148 41.5t196 12h115v58q0 60 -15.5 115.5t-46.5 102.5t-85 75t-124 28q-56 0 -103 -13.5t-74.5 -27.5t-35.5 -14q-16 0 -26.5 14t-10.5 27q0 30 81 58t173 28q91 0 158.5 -32t105.5 -89t56 -124.5t18 -147.5v-549q0 -15 -10 -26t-25 -11 t-25.5 11t-10.5 26v106q-136 -155 -308 -155q-126 0 -205 69t-79 201zM143 258q0 -98 58.5 -148.5t152.5 -50.5q73 0 147 38t118.5 91t44.5 97v172h-113q-72 0 -124.5 -3.5t-109.5 -15.5t-92.5 -33t-58.5 -58t-23 -89zM266 1268q0 18 17 26l209 123q8 4 14 4 q14 0 23.5 -11.5t9.5 -25.5q0 -24 -21 -36l-194 -111q-9 -6 -19 -6q-15 0 -27 11t-12 26z" />
<glyph unicode="&#xe2;" horiz-adv-x="866" d="M72 258q0 79 33.5 133t99.5 83.5t148 41.5t196 12h115v58q0 60 -15.5 115.5t-46.5 102.5t-85 75t-124 28q-56 0 -103 -13.5t-74.5 -27.5t-35.5 -14q-16 0 -26.5 14t-10.5 27q0 30 81 58t173 28q91 0 158.5 -32t105.5 -89t56 -124.5t18 -147.5v-549q0 -15 -10 -26t-25 -11 t-25.5 11t-10.5 26v106q-136 -155 -308 -155q-126 0 -205 69t-79 201zM143 258q0 -98 58.5 -148.5t152.5 -50.5q73 0 147 38t118.5 91t44.5 97v172h-113q-72 0 -124.5 -3.5t-109.5 -15.5t-92.5 -33t-58.5 -58t-23 -89zM145 1268q0 18 19 28l213 115q17 10 35 10q17 0 34 -10 l213 -113q19 -10 19 -34q0 -13 -10.5 -23t-24.5 -10l-18 6l-213 113l-213 -115q-2 -1 -6 -2.5t-6.5 -2.5t-4.5 -1q-14 0 -25.5 11t-11.5 28z" />
<glyph unicode="&#xe3;" horiz-adv-x="866" d="M72 258q0 79 33.5 133t99.5 83.5t148 41.5t196 12h115v58q0 60 -15.5 115.5t-46.5 102.5t-85 75t-124 28q-56 0 -103 -13.5t-74.5 -27.5t-35.5 -14q-16 0 -26.5 14t-10.5 27q0 30 81 58t173 28q91 0 158.5 -32t105.5 -89t56 -124.5t18 -147.5v-549q0 -15 -10 -26t-25 -11 t-25.5 11t-10.5 26v106q-136 -155 -308 -155q-126 0 -205 69t-79 201zM100 1307q0 38 62.5 72t120.5 34q49 0 128 -38t132 -38q32 0 55.5 10.5t34 22.5t22 22.5t21.5 10.5q11 0 20 -9t9 -22q0 -44 -58.5 -74t-114.5 -30q-47 0 -125.5 37.5t-138.5 37.5q-30 0 -55 -11 t-38 -24.5t-26 -24.5t-22 -11q-11 0 -19 9.5t-8 25.5zM143 258q0 -98 58.5 -148.5t152.5 -50.5q73 0 147 38t118.5 91t44.5 97v172h-113q-72 0 -124.5 -3.5t-109.5 -15.5t-92.5 -33t-58.5 -58t-23 -89z" />
<glyph unicode="&#xe4;" horiz-adv-x="866" d="M72 258q0 79 33.5 133t99.5 83.5t148 41.5t196 12h115v58q0 60 -15.5 115.5t-46.5 102.5t-85 75t-124 28q-56 0 -103 -13.5t-74.5 -27.5t-35.5 -14q-16 0 -26.5 14t-10.5 27q0 30 81 58t173 28q91 0 158.5 -32t105.5 -89t56 -124.5t18 -147.5v-549q0 -15 -10 -26t-25 -11 t-25.5 11t-10.5 26v106q-136 -155 -308 -155q-126 0 -205 69t-79 201zM143 258q0 -98 58.5 -148.5t152.5 -50.5q73 0 147 38t118.5 91t44.5 97v172h-113q-72 0 -124.5 -3.5t-109.5 -15.5t-92.5 -33t-58.5 -58t-23 -89zM229 1290q0 26 17 43t45 17q26 0 42.5 -17t16.5 -43 t-16.5 -43.5t-42.5 -17.5q-27 0 -44.5 17.5t-17.5 43.5zM457 1290q0 26 16.5 43t44.5 17q26 0 43 -17t17 -43t-17 -43.5t-43 -17.5q-27 0 -44 17t-17 44z" />
<glyph unicode="&#xe5;" horiz-adv-x="866" d="M72 258q0 79 33.5 133t99.5 83.5t148 41.5t196 12h115v58q0 60 -15.5 115.5t-46.5 102.5t-85 75t-124 28q-56 0 -103 -13.5t-74.5 -27.5t-35.5 -14q-16 0 -26.5 14t-10.5 27q0 30 81 58t173 28q91 0 158.5 -32t105.5 -89t56 -124.5t18 -147.5v-549q0 -15 -10 -26t-25 -11 t-25.5 11t-10.5 26v106q-136 -155 -308 -155q-126 0 -205 69t-79 201zM143 258q0 -98 58.5 -148.5t152.5 -50.5q73 0 147 38t118.5 91t44.5 97v172h-113q-72 0 -124.5 -3.5t-109.5 -15.5t-92.5 -33t-58.5 -58t-23 -89zM219 1386q0 74 54 130.5t130 56.5q72 0 128.5 -57 t56.5 -130q0 -75 -56.5 -132.5t-128.5 -57.5q-76 0 -130 57t-54 133zM268 1386q0 -55 40.5 -99t94.5 -44q53 0 93.5 44t40.5 99q0 49 -40.5 91.5t-93.5 42.5q-55 0 -95 -42.5t-40 -91.5z" />
<glyph unicode="&#xe6;" horiz-adv-x="1472" d="M72 256q0 64 22.5 112t61.5 78.5t100 49t130 25.5t159 7h114v60q0 62 -15 116.5t-46.5 102t-86.5 75t-128 27.5q-51 0 -97.5 -13.5t-75 -27.5t-36.5 -14q-13 0 -24 14.5t-11 26.5q0 30 81 58t173 28q121 0 198 -56t111 -151q46 91 133 148t191 57q49 0 97.5 -12.5 t97.5 -42.5t86 -74.5t60.5 -113.5t23.5 -154q0 -78 -31.5 -101.5t-138.5 -23.5h-482v-97q0 -137 95 -219t243 -82q57 0 103 13t69 29t43 29t31 13q12 0 24.5 -10.5t12.5 -26.5q0 -43 -102 -80.5t-205 -37.5q-116 0 -213 56.5t-142 156.5q-59 -110 -153.5 -161.5 t-194.5 -51.5q-120 0 -199 69t-79 199zM143 254q0 -93 58.5 -144t150.5 -51q119 0 213 78t94 148v172h-112q-61 0 -106 -2.5t-94.5 -9.5t-83.5 -21.5t-63 -36t-43 -55.5t-14 -78zM739 528h457q79 0 101 14.5t22 57.5q0 121 -82 214t-209 93q-122 0 -205.5 -85.5 t-83.5 -203.5v-90z" />
<glyph unicode="&#xe7;" horiz-adv-x="823" d="M106 360v246q0 165 95.5 269t279.5 104q113 0 191 -41.5t78 -79.5q0 -13 -11.5 -24t-25.5 -11q-10 0 -28.5 13t-39.5 29t-65 29t-99 13q-146 0 -224.5 -80t-78.5 -221v-246q0 -142 78.5 -221.5t226.5 -79.5q59 0 105 13t68 29t41 29t30 13q14 0 24.5 -10.5t10.5 -23.5 q0 -35 -71.5 -74t-180.5 -45l-29 -123q97 -3 145 -44t48 -99q0 -60 -46 -104t-122 -44q-47 0 -99.5 13t-52.5 36q0 10 8.5 23.5t16.5 13.5l37 -14q37 -13 78 -13q60 0 86 23.5t26 60.5q0 45 -36.5 66.5t-106.5 26.5l-60 4l41 174q-166 9 -252 110t-86 260z" />
<glyph unicode="&#xe8;" horiz-adv-x="911" d="M104 360v256q0 148 108 255.5t257 107.5q148 0 255 -106t107 -263q0 -43 -10 -73t-23.5 -45.5t-39 -23.5t-44 -9.5t-52.5 -1.5h-486v-97q0 -138 96.5 -219.5t249.5 -81.5q59 0 104.5 13t67 29t40 29t30.5 13q13 0 25 -12.5t12 -24.5q0 -21 -32.5 -47.5t-100.5 -48.5 t-150 -22q-183 0 -298.5 103t-115.5 269zM176 528h461q75 0 99 14.5t24 61.5q0 117 -82.5 210t-208.5 93q-123 0 -208 -87t-85 -204v-88zM332 1384q0 14 9.5 25.5t23.5 11.5q6 0 14 -4l209 -123q16 -8 16 -26q0 -15 -12 -26t-27 -11q-9 0 -18 6l-195 111q-20 11 -20 36z" />
<glyph unicode="&#xe9;" horiz-adv-x="911" d="M104 360v256q0 148 108 255.5t257 107.5q148 0 255 -106t107 -263q0 -43 -10 -73t-23.5 -45.5t-39 -23.5t-44 -9.5t-52.5 -1.5h-486v-97q0 -138 96.5 -219.5t249.5 -81.5q59 0 104.5 13t67 29t40 29t30.5 13q13 0 25 -12.5t12 -24.5q0 -21 -32.5 -47.5t-100.5 -48.5 t-150 -22q-183 0 -298.5 103t-115.5 269zM176 528h461q75 0 99 14.5t24 61.5q0 117 -82.5 210t-208.5 93q-123 0 -208 -87t-85 -204v-88zM332 1268q0 18 16 26l209 123q8 4 14 4q14 0 23.5 -11.5t9.5 -25.5q0 -25 -20 -36l-195 -111q-9 -6 -18 -6q-15 0 -27 11t-12 26z" />
<glyph unicode="&#xea;" horiz-adv-x="911" d="M104 360v256q0 148 108 255.5t257 107.5q148 0 255 -106t107 -263q0 -43 -10 -73t-23.5 -45.5t-39 -23.5t-44 -9.5t-52.5 -1.5h-486v-97q0 -138 96.5 -219.5t249.5 -81.5q59 0 104.5 13t67 29t40 29t30.5 13q13 0 25 -12.5t12 -24.5q0 -21 -32.5 -47.5t-100.5 -48.5 t-150 -22q-183 0 -298.5 103t-115.5 269zM176 528h461q75 0 99 14.5t24 61.5q0 117 -82.5 210t-208.5 93q-123 0 -208 -87t-85 -204v-88zM201 1268q0 19 18 28l213 115q17 10 35 10t35 -10l213 -113q18 -9 18 -34q0 -13 -10.5 -23t-24.5 -10q-3 0 -6 1t-6.5 2.5t-5.5 2.5 l-213 113l-213 -115q-2 -1 -8 -3.5t-8 -2.5q-14 0 -25.5 11t-11.5 28z" />
<glyph unicode="&#xeb;" horiz-adv-x="911" d="M104 360v256q0 148 108 255.5t257 107.5q148 0 255 -106t107 -263q0 -43 -10 -73t-23.5 -45.5t-39 -23.5t-44 -9.5t-52.5 -1.5h-486v-97q0 -138 96.5 -219.5t249.5 -81.5q59 0 104.5 13t67 29t40 29t30.5 13q13 0 25 -12.5t12 -24.5q0 -21 -32.5 -47.5t-100.5 -48.5 t-150 -22q-183 0 -298.5 103t-115.5 269zM176 528h461q75 0 99 14.5t24 61.5q0 117 -82.5 210t-208.5 93q-123 0 -208 -87t-85 -204v-88zM293 1290q0 26 16.5 43t44.5 17q26 0 43 -17t17 -43t-17 -43.5t-43 -17.5q-27 0 -44 17t-17 44zM520 1290q0 26 17 43t45 17 q26 0 42.5 -17t16.5 -43t-16.5 -43.5t-42.5 -17.5q-28 0 -45 17.5t-17 43.5z" />
<glyph unicode="&#xec;" horiz-adv-x="350" d="M37 1384q0 14 9.5 25.5t23.5 11.5q6 0 14 -4l209 -123q16 -8 16 -26q0 -15 -12 -26t-27 -11q-9 0 -18 6l-195 111q-20 11 -20 36zM139 37v895q0 15 10.5 25t24.5 10q15 0 26 -10t11 -25v-895q0 -14 -11 -25.5t-26 -11.5q-13 0 -24 11.5t-11 25.5z" />
<glyph unicode="&#xed;" horiz-adv-x="350" d="M37 1268q0 18 16 26l209 123q8 4 14 4q14 0 23.5 -11.5t9.5 -25.5q0 -25 -20 -36l-195 -111q-9 -6 -18 -6q-15 0 -27 11t-12 26zM139 37v895q0 15 10.5 25t24.5 10q15 0 26 -10t11 -25v-895q0 -14 -11 -25.5t-26 -11.5q-13 0 -24 11.5t-11 25.5z" />
<glyph unicode="&#xee;" horiz-adv-x="350" d="M-92 1268q0 19 18 28l213 115q17 10 35 10t35 -10l213 -113q18 -9 18 -34q0 -13 -10 -23t-24 -10q-1 0 -19 6l-213 113l-213 -115q-2 -1 -8 -3.5t-8 -2.5q-14 0 -25.5 11t-11.5 28zM139 37v895q0 15 10.5 25t24.5 10q15 0 26 -10t11 -25v-895q0 -14 -11 -25.5t-26 -11.5 q-13 0 -24 11.5t-11 25.5z" />
<glyph unicode="&#xef;" horiz-adv-x="350" d="M2 1290q0 26 17 43t44 17q26 0 43 -17t17 -43t-17 -43.5t-43 -17.5q-27 0 -44 17t-17 44zM139 37v895q0 15 10.5 25t24.5 10q15 0 26 -10t11 -25v-895q0 -14 -11 -25.5t-26 -11.5q-13 0 -24 11.5t-11 25.5zM229 1290q0 26 17 43t45 17q26 0 42.5 -17t16.5 -43 t-16.5 -43.5t-42.5 -17.5q-27 0 -44.5 17.5t-17.5 43.5z" />
<glyph unicode="&#xf0;" horiz-adv-x="958" d="M102 360v250q0 149 107.5 259t255.5 110q94 0 181 -48t112 -128q-28 313 -170 504l-201 -115q-9 -6 -18 -6q-13 0 -24 12.5t-11 26.5q0 19 18 28l189 109q-64 67 -137.5 101t-143.5 34q-24 0 -24 35q0 17 11.5 29t37.5 12q75 0 160.5 -44.5t160.5 -129.5l164 94q8 4 14 4 q14 0 25.5 -11t11.5 -24q0 -21 -18 -30l-152 -89q178 -239 178 -595v-388q0 -96 -50 -182t-134.5 -138t-179.5 -52q-146 0 -254.5 112t-108.5 260zM174 360q0 -118 86 -209.5t205 -91.5t206 91.5t87 209.5v261q0 111 -87.5 198.5t-205.5 87.5q-120 0 -205.5 -90.5 t-85.5 -206.5v-250z" />
<glyph unicode="&#xf1;" horiz-adv-x="985" d="M139 37v895q0 15 10 25t25 10t26 -10t11 -25v-109q38 67 108 111.5t166 44.5q151 0 260 -108.5t109 -260.5v-573q0 -18 -11 -27.5t-26 -9.5q-13 0 -24 10t-11 27v573q0 115 -86 206t-204 91q-111 0 -196 -82t-85 -215v-573q0 -14 -11 -25.5t-26 -11.5t-25 11.5t-10 25.5z M184 1307q0 38 62.5 72t120.5 34q49 0 128 -38t132 -38q32 0 55.5 10.5t34 22.5t22 22.5t21.5 10.5q11 0 19.5 -9t8.5 -22q0 -44 -58 -74t-114 -30q-47 0 -125.5 37.5t-138.5 37.5q-30 0 -55 -11t-38 -24.5t-26 -24.5t-22 -11q-11 0 -19 9.5t-8 25.5z" />
<glyph unicode="&#xf2;" d="M102 360v250q0 149 107.5 259t255.5 110q147 0 255.5 -109t108.5 -260v-250q0 -96 -50 -182t-134.5 -138t-179.5 -52q-146 0 -254.5 112t-108.5 260zM174 360q0 -118 86 -209.5t205 -91.5t206 91.5t87 209.5v250q0 115 -86.5 206t-206.5 91t-205.5 -90.5t-85.5 -206.5 v-250zM330 1384q0 14 9 25.5t23 11.5q7 0 15 -4l209 -123q16 -8 16 -26q0 -15 -12 -26t-27 -11q-9 0 -18 6l-195 111q-20 11 -20 36z" />
<glyph unicode="&#xf3;" d="M102 360v250q0 149 107.5 259t255.5 110q147 0 255.5 -109t108.5 -260v-250q0 -96 -50 -182t-134.5 -138t-179.5 -52q-146 0 -254.5 112t-108.5 260zM174 360q0 -118 86 -209.5t205 -91.5t206 91.5t87 209.5v250q0 115 -86.5 206t-206.5 91t-205.5 -90.5t-85.5 -206.5 v-250zM330 1268q0 18 16 26l209 123q8 4 14 4q14 0 23.5 -11.5t9.5 -25.5q0 -25 -20 -36l-195 -111q-9 -6 -18 -6q-15 0 -27 11t-12 26z" />
<glyph unicode="&#xf4;" d="M102 360v250q0 149 107.5 259t255.5 110q147 0 255.5 -109t108.5 -260v-250q0 -96 -50 -182t-134.5 -138t-179.5 -52q-146 0 -254.5 112t-108.5 260zM174 360q0 -118 86 -209.5t205 -91.5t206 91.5t87 209.5v250q0 115 -86.5 206t-206.5 91t-205.5 -90.5t-85.5 -206.5 v-250zM199 1268q0 19 18 28l213 115q17 10 35 10t35 -10l213 -113q18 -9 18 -34q0 -13 -10.5 -23t-24.5 -10l-18 6l-213 113l-213 -115q-2 -1 -8 -3.5t-8 -2.5q-14 0 -25.5 11t-11.5 28z" />
<glyph unicode="&#xf5;" d="M102 360v250q0 149 107.5 259t255.5 110q147 0 255.5 -109t108.5 -260v-250q0 -96 -50 -182t-134.5 -138t-179.5 -52q-146 0 -254.5 112t-108.5 260zM164 1307q0 38 62 72t120 34q50 0 129 -38t131 -38q32 0 55.5 10.5t34 22.5t22 22.5t21.5 10.5q11 0 20 -9t9 -22 q0 -44 -58 -74t-114 -30q-47 0 -125.5 37.5t-138.5 37.5q-30 0 -55 -11t-38.5 -24.5t-26.5 -24.5t-22 -11q-11 0 -18.5 9t-7.5 26zM174 360q0 -118 86 -209.5t205 -91.5t206 91.5t87 209.5v250q0 115 -86.5 206t-206.5 91t-205.5 -90.5t-85.5 -206.5v-250z" />
<glyph unicode="&#xf6;" d="M102 360v250q0 149 107.5 259t255.5 110q147 0 255.5 -109t108.5 -260v-250q0 -96 -50 -182t-134.5 -138t-179.5 -52q-146 0 -254.5 112t-108.5 260zM174 360q0 -118 86 -209.5t205 -91.5t206 91.5t87 209.5v250q0 115 -86.5 206t-206.5 91t-205.5 -90.5t-85.5 -206.5 v-250zM291 1290q0 26 16.5 43t44.5 17q26 0 43 -17t17 -43t-17 -43.5t-43 -17.5q-27 0 -44 17t-17 44zM518 1290q0 26 17 43t45 17q26 0 42.5 -17t16.5 -43t-16.5 -43.5t-42.5 -17.5q-28 0 -45 17.5t-17 43.5z" />
<glyph unicode="&#xf7;" horiz-adv-x="944" d="M109 492q0 15 9.5 25.5t24.5 10.5h656q14 0 25.5 -10.5t11.5 -25.5t-11.5 -25t-25.5 -10h-656q-15 0 -24.5 10t-9.5 25zM375 164q0 35 26.5 61.5t63.5 26.5q35 0 61.5 -26.5t26.5 -61.5t-26.5 -61.5t-61.5 -26.5q-37 0 -63.5 26.5t-26.5 61.5zM375 821q0 35 26.5 61.5 t63.5 26.5q35 0 61.5 -26.5t26.5 -61.5t-26.5 -61.5t-61.5 -26.5q-37 0 -63.5 26.5t-26.5 61.5z" />
<glyph unicode="&#xf8;" d="M102 360v250q0 149 107.5 259t255.5 110q97 0 182 -51l51 98q8 16 27 16q13 0 25 -11t12 -27q0 -11 -6 -23l-51 -96q58 -52 91 -123.5t33 -151.5v-250q0 -96 -50 -182t-134.5 -138t-179.5 -52q-103 0 -191 59l-47 -90q-11 -23 -34 -23q-13 0 -23 9t-10 22t4 19l55 108 q-117 114 -117 268zM174 360q0 -114 78 -202l362 704q-67 45 -149 45q-120 0 -205.5 -90.5t-85.5 -206.5v-250zM305 111q71 -52 160 -52q119 0 206 91.5t87 209.5v250q0 119 -88 207z" />
<glyph unicode="&#xf9;" horiz-adv-x="989" d="M131 356v574q0 14 11 25.5t26 11.5q13 0 24 -11.5t11 -25.5v-574q0 -116 86 -206.5t207 -90.5q120 0 205 89.5t85 207.5v576q0 14 11 24.5t26 10.5t25 -10.5t10 -24.5v-576q0 -148 -107.5 -258t-254.5 -110q-149 0 -257 110t-108 258zM358 1384q0 14 9.5 25.5t23.5 11.5 q7 0 15 -4l208 -123q17 -8 17 -26q0 -15 -12 -26t-27 -11q-10 0 -19 6l-194 111q-21 12 -21 36z" />
<glyph unicode="&#xfa;" horiz-adv-x="989" d="M131 356v574q0 14 11 25.5t26 11.5q13 0 24 -11.5t11 -25.5v-574q0 -116 86 -206.5t207 -90.5q120 0 205 89.5t85 207.5v576q0 14 11 24.5t26 10.5t25 -10.5t10 -24.5v-576q0 -148 -107.5 -258t-254.5 -110q-149 0 -257 110t-108 258zM358 1268q0 18 17 26l209 123 q8 4 14 4q14 0 23.5 -11.5t9.5 -25.5q0 -24 -21 -36l-194 -111q-9 -6 -19 -6q-15 0 -27 11t-12 26z" />
<glyph unicode="&#xfb;" horiz-adv-x="989" d="M131 356v574q0 14 11 25.5t26 11.5q13 0 24 -11.5t11 -25.5v-574q0 -116 86 -206.5t207 -90.5q120 0 205 89.5t85 207.5v576q0 14 11 24.5t26 10.5t25 -10.5t10 -24.5v-576q0 -148 -107.5 -258t-254.5 -110q-149 0 -257 110t-108 258zM227 1268q0 18 19 28l213 115 q17 10 35 10q17 0 34 -10l213 -113q19 -10 19 -34q0 -13 -10.5 -23t-24.5 -10q-3 0 -6 1t-6.5 2.5t-5.5 2.5l-213 113l-213 -115q-2 -1 -6 -2.5t-6.5 -2.5t-4.5 -1q-14 0 -25.5 11t-11.5 28z" />
<glyph unicode="&#xfc;" horiz-adv-x="989" d="M131 356v574q0 14 11 25.5t26 11.5q13 0 24 -11.5t11 -25.5v-574q0 -116 86 -206.5t207 -90.5q120 0 205 89.5t85 207.5v576q0 14 11 24.5t26 10.5t25 -10.5t10 -24.5v-576q0 -148 -107.5 -258t-254.5 -110q-149 0 -257 110t-108 258zM319 1290q0 26 17 43t45 17 q26 0 42.5 -17t16.5 -43t-16.5 -43.5t-42.5 -17.5q-27 0 -44.5 17.5t-17.5 43.5zM547 1290q0 26 16.5 43t44.5 17q26 0 43 -17t17 -43t-17 -43.5t-43 -17.5q-27 0 -44 17t-17 44z" />
<glyph unicode="&#xfd;" horiz-adv-x="808" d="M37 944q0 13 12 24t27 11q26 0 33 -23l297 -819l294 819q10 23 33 23q15 0 26 -9.5t11 -25.5q0 -8 -2 -12l-328 -905q-79 -218 -129 -311q-108 -201 -237 -201q-14 0 -24.5 9.5t-10.5 24.5q0 37 31 37q41 0 78.5 26t66 66t56.5 99t48.5 113t43.5 119l6 18l-328 905 q-4 8 -4 12zM266 1268q0 18 17 26l209 123q8 4 14 4q14 0 23.5 -11.5t9.5 -25.5q0 -24 -21 -36l-194 -111q-9 -6 -19 -6q-15 0 -27 11t-12 26z" />
<glyph unicode="&#xfe;" horiz-adv-x="958" d="M141 -449v1987q0 15 10 25t25 10t26 -10t11 -25v-715q38 67 108 111.5t166 44.5q151 0 260 -108.5t109 -260.5v-250q0 -96 -50 -182t-134.5 -138t-179.5 -52q-91 0 -167.5 44.5t-111.5 110.5v-592q0 -14 -11 -25t-26 -11t-25 11t-10 25zM213 285q0 -27 22 -65t58 -74 t91 -61.5t112 -25.5q116 0 202 92t86 209v250q0 115 -86 206t-204 91q-111 0 -196 -82t-85 -215v-325z" />
<glyph unicode="&#xff;" horiz-adv-x="808" d="M37 944q0 13 12 24t27 11q26 0 33 -23l297 -819l294 819q10 23 33 23q15 0 26 -9.5t11 -25.5q0 -8 -2 -12l-328 -905q-79 -218 -129 -311q-108 -201 -237 -201q-14 0 -24.5 9.5t-10.5 24.5q0 37 31 37q41 0 78.5 26t66 66t56.5 99t48.5 113t43.5 119l6 18l-328 905 q-4 8 -4 12zM229 1290q0 26 17 43t45 17q26 0 42.5 -17t16.5 -43t-16.5 -43.5t-42.5 -17.5q-27 0 -44.5 17.5t-17.5 43.5zM457 1290q0 26 16.5 43t44.5 17q26 0 43 -17t17 -43t-17 -43.5t-43 -17.5q-27 0 -44 17t-17 44z" />
<glyph unicode="&#x152;" horiz-adv-x="1730" d="M156 410v665q0 112 30 195t85.5 131.5t126 72t157.5 23.5q228 0 330 -147v110q0 18 11 27.5t26 9.5h725q17 0 25.5 -10.5t8.5 -24.5q0 -16 -9 -27.5t-25 -11.5h-693v-637h328q16 0 25.5 -11t9.5 -27q0 -14 -9 -24.5t-26 -10.5h-328v-639h693q16 0 25 -11.5t9 -27.5 q0 -14 -8.5 -24.5t-25.5 -10.5h-725q-15 0 -26 9.5t-11 27.5v98q-102 -147 -330 -147q-87 0 -157.5 23.5t-126 72t-85.5 131.5t-30 195zM229 410q0 -175 84.5 -262t241.5 -87t242.5 87t85.5 262v665q0 175 -85.5 261.5t-242.5 86.5t-241.5 -86.5t-84.5 -261.5v-665z" />
<glyph unicode="&#x153;" horiz-adv-x="1564" d="M102 360v250q0 149 107.5 259t255.5 110q103 0 192.5 -58t135.5 -153q44 94 133 152.5t196 58.5q147 0 255 -106t108 -259q0 -45 -9.5 -75.5t-23 -46.5t-39 -24t-44.5 -9.5t-54 -1.5h-486v-97q0 -138 97.5 -219.5t255.5 -81.5q57 0 100.5 13t63 29t38 29t31.5 13 q15 0 27 -10.5t12 -30.5q0 -14 -22 -33.5t-58 -37.5t-91 -30.5t-114 -12.5q-132 0 -232 57t-146 156q-45 -94 -134 -153.5t-192 -59.5q-146 0 -254.5 112t-108.5 260zM174 360q0 -118 86 -209.5t205 -91.5t206 91.5t87 209.5v250q0 115 -86.5 206t-206.5 91t-205.5 -90.5 t-85.5 -206.5v-250zM829 528h461q75 0 99 14.5t24 61.5q0 117 -82.5 210t-208.5 93q-122 0 -207.5 -84t-85.5 -198v-97z" />
<glyph unicode="&#x178;" horiz-adv-x="1042" d="M45 1464q0 15 8 24t19 9q24 0 41 -35l407 -821l410 821q17 35 41 35q11 0 17.5 -9t6.5 -24q0 -21 -10 -41l-426 -852q-2 -4 -2 -12v-522q0 -18 -11 -27.5t-26 -9.5t-26 9.5t-11 27.5v522q0 8 -2 12l-424 852q-12 24 -12 41zM346 1821q0 26 17 42.5t45 16.5 q26 0 42.5 -16.5t16.5 -42.5q0 -27 -16.5 -44.5t-42.5 -17.5q-27 0 -44.5 17.5t-17.5 44.5zM573 1821q0 26 17 42.5t45 16.5q26 0 42.5 -16.5t16.5 -42.5q0 -27 -16.5 -44.5t-42.5 -17.5q-27 0 -44.5 17.5t-17.5 44.5z" />
<glyph unicode="&#x2c6;" horiz-adv-x="532" d="M0 1268q0 19 18 28l213 115q17 10 35 10t35 -10l213 -113q18 -9 18 -34q0 -13 -10 -23t-24 -10q-1 0 -19 6l-213 113l-213 -115q-2 -1 -8 -3.5t-8 -2.5q-14 0 -25.5 11t-11.5 28z" />
<glyph unicode="&#x2dc;" horiz-adv-x="604" d="M0 1307q0 38 62 72t120 34q50 0 129 -38t131 -38q32 0 55.5 10.5t34 22.5t22 22.5t21.5 10.5q11 0 20 -9t9 -22q0 -44 -58 -74t-114 -30q-47 0 -125.5 37.5t-138.5 37.5q-30 0 -55 -11t-38 -24.5t-26 -24.5t-22 -11q-11 0 -19 9.5t-8 25.5z" />
<glyph unicode="&#x2000;" horiz-adv-x="1051" />
<glyph unicode="&#x2001;" horiz-adv-x="2103" />
<glyph unicode="&#x2002;" horiz-adv-x="1051" />
<glyph unicode="&#x2003;" horiz-adv-x="2103" />
<glyph unicode="&#x2004;" horiz-adv-x="701" />
<glyph unicode="&#x2005;" horiz-adv-x="525" />
<glyph unicode="&#x2006;" horiz-adv-x="350" />
<glyph unicode="&#x2007;" horiz-adv-x="350" />
<glyph unicode="&#x2008;" horiz-adv-x="262" />
<glyph unicode="&#x2009;" horiz-adv-x="420" />
<glyph unicode="&#x200a;" horiz-adv-x="116" />
<glyph unicode="&#x2010;" horiz-adv-x="808" d="M102 492q0 15 10 25.5t25 10.5h533q14 0 25.5 -10.5t11.5 -25.5t-11.5 -25t-25.5 -10h-533q-15 0 -25 10t-10 25z" />
<glyph unicode="&#x2011;" horiz-adv-x="808" d="M102 492q0 15 10 25.5t25 10.5h533q14 0 25.5 -10.5t11.5 -25.5t-11.5 -25t-25.5 -10h-533q-15 0 -25 10t-10 25z" />
<glyph unicode="&#x2012;" horiz-adv-x="808" d="M102 492q0 15 10 25.5t25 10.5h533q14 0 25.5 -10.5t11.5 -25.5t-11.5 -25t-25.5 -10h-533q-15 0 -25 10t-10 25z" />
<glyph unicode="&#x2013;" d="M102 492q0 15 10 25.5t25 10.5h656q14 0 25 -10.5t11 -25.5t-11 -25t-25 -10h-656q-15 0 -25 10t-10 25z" />
<glyph unicode="&#x2014;" horiz-adv-x="1505" d="M102 492q0 15 10 25.5t25 10.5h1229q14 0 25.5 -10.5t11.5 -25.5t-11.5 -25t-25.5 -10h-1229q-15 0 -25 10t-10 25z" />
<glyph unicode="&#x2018;" horiz-adv-x="307" d="M80 1298q0 25 21 87t46 112q11 21 29 21q13 0 23 -9t10 -22q0 -8 -2 -12l-37 -105q24 -6 39.5 -26.5t15.5 -45.5q0 -31 -20.5 -52t-52.5 -21q-30 0 -51 21.5t-21 51.5z" />
<glyph unicode="&#x2019;" horiz-adv-x="303" d="M84 1444q0 31 21 52.5t53 21.5q29 0 50 -21.5t21 -52.5q0 -25 -21 -87t-46 -112q-10 -20 -29 -20q-13 0 -23 8.5t-10 21.5q0 9 2 13l37 104q-24 6 -39.5 26.5t-15.5 45.5z" />
<glyph unicode="&#x201a;" horiz-adv-x="331" d="M92 61q0 31 21 52.5t53 21.5q29 0 50.5 -21.5t21.5 -52.5q0 -24 -21.5 -85.5t-46.5 -112.5q-10 -21 -29 -21q-12 0 -22 9t-10 22q0 8 2 12l36 105q-24 6 -39.5 26t-15.5 45z" />
<glyph unicode="&#x201c;" horiz-adv-x="581" d="M80 1298q0 25 21 87t46 112q11 21 29 21q13 0 23 -9t10 -22q0 -8 -2 -12l-37 -105q24 -6 39.5 -26.5t15.5 -45.5q0 -31 -20.5 -52t-52.5 -21q-30 0 -51 21.5t-21 51.5zM354 1298q0 24 21.5 86.5t46.5 112.5q10 21 29 21q12 0 22 -9t10 -22q0 -8 -2 -12l-37 -105 q25 -6 40.5 -26.5t15.5 -45.5q0 -31 -21 -52t-53 -21q-30 0 -51 21.5t-21 51.5z" />
<glyph unicode="&#x201d;" horiz-adv-x="577" d="M84 1444q0 31 21 52.5t53 21.5q29 0 50 -21.5t21 -52.5q0 -25 -21 -87t-46 -112q-10 -20 -29 -20q-13 0 -23 8.5t-10 21.5q0 9 2 13l37 104q-24 6 -39.5 26.5t-15.5 45.5zM358 1444q0 31 21 52.5t53 21.5q29 0 50.5 -21.5t21.5 -52.5q0 -24 -21.5 -86.5t-46.5 -112.5 q-10 -20 -28 -20q-13 0 -23 8.5t-10 21.5q0 9 2 13l37 104q-25 6 -40.5 26.5t-15.5 45.5z" />
<glyph unicode="&#x201e;" horiz-adv-x="606" d="M92 61q0 31 21 52.5t53 21.5q29 0 50.5 -21.5t21.5 -52.5q0 -24 -21.5 -85.5t-46.5 -112.5q-10 -21 -29 -21q-12 0 -22 9t-10 22q0 8 2 12l36 105q-24 6 -39.5 26t-15.5 45zM367 61q0 31 20.5 52.5t52.5 21.5q29 0 50.5 -21.5t21.5 -52.5q0 -24 -21.5 -85.5t-46.5 -112.5 q-10 -21 -28 -21q-13 0 -23 9t-10 22q0 8 2 12l37 105q-24 6 -39.5 26t-15.5 45z" />
<glyph unicode="&#x2022;" horiz-adv-x="622" d="M115 614q0 76 58.5 133.5t137.5 57.5q78 0 136.5 -58t58.5 -133q0 -77 -58.5 -134.5t-136.5 -57.5q-79 0 -137.5 57.5t-58.5 134.5z" />
<glyph unicode="&#x2026;" horiz-adv-x="1052" d="M92 61q0 31 21 52.5t53 21.5q29 0 50.5 -21.5t21.5 -52.5q0 -29 -21.5 -51t-50.5 -22q-32 0 -53 21.5t-21 51.5zM455 61q0 31 20.5 52.5t52.5 21.5q29 0 50.5 -21.5t21.5 -52.5q0 -29 -21.5 -51t-50.5 -22q-32 0 -52.5 21.5t-20.5 51.5zM815 61q0 31 21 52.5t53 21.5 q29 0 50.5 -21.5t21.5 -52.5q0 -29 -21.5 -51t-50.5 -22q-32 0 -53 21.5t-21 51.5z" />
<glyph unicode="&#x202f;" horiz-adv-x="420" />
<glyph unicode="&#x2039;" horiz-adv-x="440" d="M82 567q0 18 10 35l197 365q9 18 35 18q13 0 22.5 -10.5t9.5 -24.5q0 -9 -6 -18l-196 -365l196 -362q6 -9 6 -19q0 -14 -11.5 -24t-25.5 -10q-20 0 -30 18l-197 362q-10 17 -10 35z" />
<glyph unicode="&#x203a;" horiz-adv-x="440" d="M84 186q0 10 6 19l197 362l-197 365q-6 9 -6 18q0 14 10 24.5t23 10.5q26 0 35 -18l196 -365q10 -17 10 -35t-10 -35l-196 -362q-10 -18 -31 -18q-14 0 -25.5 10t-11.5 24z" />
<glyph unicode="&#x205f;" horiz-adv-x="525" />
<glyph unicode="&#x20ac;" horiz-adv-x="1161" d="M76 575q0 15 10 26t25 11h143v222h-143q-15 0 -25 9.5t-10 24.5t10 26t25 11h143v170q0 112 30 195t85.5 131.5t126 72t157.5 23.5q184 0 293 -96.5t109 -241.5q0 -20 -11 -30.5t-26 -10.5t-26 9.5t-11 27.5q0 89 -45 150.5t-117.5 89.5t-165.5 28q-157 0 -241 -86.5 t-84 -261.5v-170h417q14 0 25.5 -11t11.5 -26q0 -14 -11.5 -24t-25.5 -10h-417v-222h417q14 0 25.5 -11t11.5 -26q0 -14 -11.5 -24t-25.5 -10h-417v-131q0 -175 84 -262t241 -87q143 0 235.5 68.5t92.5 200.5q0 18 11 27.5t26 9.5t26 -10.5t11 -30.5q0 -145 -109 -241.5 t-293 -96.5q-87 0 -157.5 23.5t-126 72t-85.5 131.5t-30 195v131h-143q-15 0 -25 9.5t-10 24.5z" />
<glyph unicode="&#x2122;" horiz-adv-x="1241" d="M70 1538q0 14 6.5 24.5t19.5 10.5h383q13 0 20 -11t7 -24q0 -15 -7 -26t-20 -11h-153v-506q0 -13 -11 -20.5t-26 -7.5q-16 0 -27.5 7.5t-11.5 20.5v506h-154q-11 0 -18.5 11.5t-7.5 25.5zM567 995v541q0 19 11 28t26 9q36 0 58 -53l153 -363l156 363q21 53 57 53 q37 0 37 -37v-541q0 -13 -11 -20.5t-26 -7.5t-26 7.5t-11 20.5v416l-147 -344q-11 -25 -29 -25q-19 0 -27 25l-147 348v-420q0 -13 -11 -20.5t-26 -7.5t-26 7.5t-11 20.5z" />
<glyph unicode="&#xe000;" horiz-adv-x="983" d="M0 0v983h983v-983h-983z" />
</font>
</defs>
</svg>
